<svg height="512" viewBox="0 0 53 60" width="512" xmlns="http://www.w3.org/2000/svg"><g id="016---Astronaut-Dog" fill="none"><path id="Shape" d="m34.57 49.57c1.71.12 6.78.08 8.43-4s5-4.0001139 5-4.0001139c-.3205853.6415377-.5816784 1.3110072-.78 2.0001139-1.62 4.66-.22 7.43-6.54 9.61-2.2316196.8570738-4.6662372 1.0379311-7 .52z" fill="#a56a43"/><path id="Shape" d="m34.9 47.11c5.63-3.3 5-8.71.8-13.45h-19.4c-4.28 4.79-4.79 10.18.8 13.45z" fill="#f29c1f"/><path id="Shape" d="m35 40c.4529377 5.1394882-.1424236 10.3174303-1.75 15.22 4.37 3.7-.71 3.89-3.52 3.86-1.0038641.0098802-1.8595008-.7259675-2-1.72l-.64-4.48h-2.22l-.64 4.48c-.1404992.9940325-.9961359 1.7298802-2 1.72-2.81 0-7.89-.16-3.52-3.86-1.5940739-4.9053437-2.1758199-10.0832228-1.71-15.22z" fill="#f29c1f"/><path id="Shape" d="m35.7 33.66c-.7 2.34-2.95 5.34-9.7 5.34s-9-3-9.7-5.34c.38-.42.73-.78 1-1h17.39c.31.22.63.58 1.01 1z" fill="#e57e25"/><path id="Shape" d="m29.71 51.31c-.3900375-.3877236-1.0199625-.3877236-1.41 0-1.3845471.9552778-3.2154529.9552778-4.6 0-.3900375-.3877236-1.0199625-.3877236-1.41 0-.1893127.1877666-.2957983.4433625-.2957983.71s.1064856.5222334.2957983.71c1.72 1.72 5.7 1.72 7.42 0 .1893127-.1877666.2957983-.4433625.2957983-.71s-.1064856-.5222334-.2957983-.71z" fill="#e57e25"/><g fill="#f0c419"><path id="Shape" d="m6 7c-.55228475 0-1-.44771525-1-1v-4c0-.55228475.44771525-1 1-1s1 .44771525 1 1v4c0 .55228475-.44771525 1-1 1z"/><path id="Shape" d="m8 5h-4c-.55228475 0-1-.44771525-1-1s.44771525-1 1-1h4c.55228475 0 1 .44771525 1 1s-.44771525 1-1 1z"/><path id="Shape" d="m50 37c-.5522847 0-1-.4477153-1-1v-4c0-.5522847.4477153-1 1-1s1 .4477153 1 1v4c0 .5522847-.4477153 1-1 1z"/><path id="Shape" d="m52 35h-4c-.5522847 0-1-.4477153-1-1s.4477153-1 1-1h4c.5522847 0 1 .4477153 1 1s-.4477153 1-1 1z"/><path id="Shape" d="m3 51c-.55228475 0-1-.4477153-1-1v-4c0-.5522847.44771525-1 1-1s1 .4477153 1 1v4c0 .5522847-.44771525 1-1 1z"/><path id="Shape" d="m5 49h-4c-.55228475 0-1-.4477153-1-1s.44771525-1 1-1h4c.55228475 0 1 .4477153 1 1s-.44771525 1-1 1z"/><path id="Shape" d="m31 40v7c0 .5522847-.4477153 1-1 1h-8c-.5522847 0-1-.4477153-1-1v-7c0-.5522847.4477153-1 1-1h8c.5522847 0 1 .4477153 1 1z"/></g><path id="Shape" d="m28 43h-1c-.5522847 0-1-.4477153-1-1s.4477153-1 1-1h1c.5522847 0 1 .4477153 1 1s-.4477153 1-1 1z" fill="#f29c1f"/><path id="Shape" d="m28 46h-1c-.5522847 0-1-.4477153-1-1s.4477153-1 1-1h1c.5522847 0 1 .4477153 1 1s-.4477153 1-1 1z" fill="#f29c1f"/><path id="Shape" d="m43 18c.0099386 7.8694197-5.3824145 14.7170436-13.0347816 16.5525664-7.6523671 1.8355227-15.5642565-1.8209005-19.1251851-8.8385677-3.56092858-7.0176673-1.83999379-15.5620109 4.1599667-20.6539987v-.06c6.3448708-5.38469147 15.6551292-5.38469147 22 0h.06c3.7939361 3.25006502 5.966294 8.0043837 5.94 13z" fill="#2c3e50"/><path id="Shape" d="m30.16 23c-3.8112855 2.270854-8.4733462 2.6008273-12.5664888.8894363-4.0931425-1.711391-7.1328657-5.2615707-8.1935112-9.5694363.8081723-3.6142536 2.7745052-6.8657255 5.6-9.26v-.06c5.5829046-4.71585731 13.5550687-5.33591452 19.8-1.54 2.0311234 3.19181247 2.6839937 7.069784 1.8099182 10.750697-.8740756 3.6809131-3.2006781 6.8513742-6.4499182 8.789303z" fill="#35495e"/><path id="Shape" d="m23.62 12.23c-.97-1.84-3.83-6.41-8.62-7.23-.0018791.01995586-.0018791.04004414 0 .06-1.0238565 4.28364827-.8158583 8.7694761.6 12.94z" fill="#a56a43"/><path id="Shape" d="m36.4 18c1.4158583-4.1705239 1.6238565-8.65635173.6-12.94v-.06c-4.75.81-7.61 5.38-8.58 7.22z" fill="#a56a43"/><path id="Shape" d="m34.07 32.89c4.14-6.74-2.5-7.72-4.52-7.87-.3613358-.0286214-.6788954-.2505305-.83-.58-.65-1.48-2.08-5.84.16-12.09 4.3063371 1.0613904 7.6760922 4.4115164 8.7626223 8.7115794 1.08653 4.3000629-.2873581 8.8488019-3.5726223 11.8284206z" fill="#cf976a"/><path id="Shape" d="m23.28 24.44c-.1511046.3294695-.4686642.5513786-.83.58-2 .15-8.66 1.13-4.52 7.87-3.2852642-2.9796187-4.6591523-7.5283577-3.5726223-11.8284206 1.0865301-4.300063 4.4562852-7.650189 8.7626223-8.7115794 2.24 6.25.81 10.65.16 12.09z" fill="#cf976a"/><path id="Shape" d="m34.07 32.89-.21.18c-4.925316 2.5682245-10.794684 2.5682245-15.72 0l-.21-.18c-4.14-6.74 2.5-7.72 4.52-7.87.3613358-.0286214.6788954-.2505305.83-.58.65-1.48 2.08-5.84-.16-12.09 1.8915259-.4676338 3.8684741-.4676338 5.76 0-2.24 6.25-.81 10.61-.16 12.09.1511046.3294695.4686642.5513786.83.58 2.02.15 8.66 1.13 4.52 7.87z" fill="#a56a43"/><path id="Shape" d="m26 30c-.5522847 0-1-.4477153-1-1v-2c0-.5522847.4477153-1 1-1s1 .4477153 1 1v2c0 .5522847-.4477153 1-1 1z" fill="#805333"/><path id="Shape" d="m21.29 29.71c-.3921222-.3921222-.3921222-1.0278778 0-1.42s1.0278778-.3921222 1.42 0c.3247642.3732266.7952578.5875028 1.29.5875028s.9652358-.2142762 1.29-.5875028c.3921222-.3921221 1.0278778-.3921221 1.42 0 .3921221.3921222.3921221 1.0278778 0 1.42-.7030489.7476333-1.6837285 1.1716084-2.71 1.1716084s-2.0069511-.4239751-2.71-1.1716084z" fill="#805333"/><path id="Shape" d="m25.29 29.71c-.2536586-.2536586-.3527235-.623374-.259878-.969878.0928454-.3465041.3634959-.6171546.71-.71.346504-.0928455.7162194.0062194.969878.259878.3266184.3736563.7987152.5880216 1.295.5880216s.9683816-.2143653 1.295-.5880216c.3921222-.3893607 1.0256393-.3871222 1.415.005s.3871222 1.0256393-.005 1.415c-.7015444.750338-1.6827846 1.1762281-2.71 1.1762281s-2.0084556-.4258901-2.71-1.1762281z" fill="#805333"/><circle id="Oval" cx="21" cy="21" fill="#35495e" r="2"/><circle id="Oval" cx="31" cy="21" fill="#35495e" r="2"/><path id="Shape" d="m34.93 47.09c.1782451-1.7106225.2550462-3.4302985.23-5.15 1.5571095-.7295849 2.7667494-2.039729 3.37-3.65 1.3 3.84-.17 6.79-3.6 8.8z" fill="#e57e25"/><path id="Shape" d="m17.07 47.09c-3.43-2-4.9-5-3.6-8.8.6032506 1.610271 1.8128905 2.9204151 3.37 3.65-.0324257 1.7198046.0443955 3.4399327.23 5.15z" fill="#e57e25"/><circle id="Oval" cx="21" cy="20" fill="#fff" r="1"/><circle id="Oval" cx="31" cy="20" fill="#fff" r="1"/></g></svg>