<svg height="512" viewBox="0 0 60 60" width="512" xmlns="http://www.w3.org/2000/svg"><g id="013---Astronaut" fill="none"><path id="Shape" d="m13 11h3v6h-3c-1.1045695 0-2-.8954305-2-2v-2c0-1.1045695.8954305-2 2-2z" fill="#bdc3c7"/><path id="Shape" d="m44 11h3c1.1045695 0 2 .8954305 2 2v2c0 1.1045695-.8954305 2-2 2h-3z" fill="#bdc3c7"/><path id="Shape" d="m45 35v8c0 1.3260824-.5267842 2.597852-1.4644661 3.5355339s-2.2094515 1.4644661-3.5355339 1.4644661v9h-20v-9c-1.3260824 0-2.597852-.5267842-3.5355339-1.4644661s-1.4644661-2.2094515-1.4644661-3.5355339v-8c.0012945-4.0027796 2.6460369-7.5236694 6.49-8.64h17c3.8518897 1.1089753 6.5061276 4.6316505 6.51 8.64z" fill="#ecf0f1"/><rect id="Rectangle-path" fill="#547580" height="12" rx="1" width="12" x="24" y="31"/><path id="Shape" d="m36 34v2h-2c-.5522847 0-1-.4477153-1-1s.4477153-1 1-1z" fill="#35495e"/><path id="Shape" d="m36 38v2h-2c-.5522847 0-1-.4477153-1-1s.4477153-1 1-1z" fill="#35495e"/><path id="Shape" d="m29 36h-1c-.5522847 0-1-.4477153-1-1s.4477153-1 1-1h1c.5522847 0 1 .4477153 1 1s-.4477153 1-1 1z" fill="#35495e"/><path id="Shape" d="m29 40h-1c-.5522847 0-1-.4477153-1-1s.4477153-1 1-1h1c.5522847 0 1 .4477153 1 1s-.4477153 1-1 1z" fill="#35495e"/><path id="Shape" d="m21 42c0 .5522847-.4477153 1-1 1h-5v-2h5c.5522847 0 1 .4477153 1 1z" fill="#bdc3c7"/><path id="Shape" d="m45 41v2h-5c-.5522847 0-1-.4477153-1-1s.4477153-1 1-1z" fill="#bdc3c7"/><path id="Shape" d="m26 50h-1c-.5522847 0-1-.4477153-1-1s.4477153-1 1-1h1c.5522847 0 1 .4477153 1 1s-.4477153 1-1 1z" fill="#bdc3c7"/><path id="Shape" d="m35 50h-1c-.5522847 0-1-.4477153-1-1s.4477153-1 1-1h1c.5522847 0 1 .4477153 1 1s-.4477153 1-1 1z" fill="#bdc3c7"/><path id="Shape" d="m2 60h-1c-.55228475 0-1-.4477153-1-1s.44771525-1 1-1h1c.55228475 0 1 .4477153 1 1s-.44771525 1-1 1z" fill="#a56a43"/><path id="Shape" d="m59 60h-7c-.5522847 0-1-.4477153-1-1s.4477153-1 1-1h7c.5522847 0 1 .4477153 1 1s-.4477153 1-1 1z" fill="#a56a43"/><path id="Shape" d="m8 52h-2c-.55228475 0-1-.4477153-1-1s.44771525-1 1-1h2c.55228475 0 1 .4477153 1 1s-.44771525 1-1 1z" fill="#805333"/><path id="Shape" d="m20 52h-7c-.5522847 0-1-.4477153-1-1s.4477153-1 1-1h7c.5522847 0 1 .4477153 1 1s-.4477153 1-1 1z" fill="#805333"/><path id="Shape" d="m51 52h-11c-.5522847 0-1-.4477153-1-1s.4477153-1 1-1h11c.5522847 0 1 .4477153 1 1s-.4477153 1-1 1z" fill="#805333"/><g fill="#f0c419"><path id="Shape" d="m3 8c-.55228475 0-1-.44771525-1-1v-4c0-.55228475.44771525-1 1-1s1 .44771525 1 1v4c0 .55228475-.44771525 1-1 1z"/><path id="Shape" d="m5 6h-4c-.55228475 0-1-.44771525-1-1s.44771525-1 1-1h4c.55228475 0 1 .44771525 1 1s-.44771525 1-1 1z"/><path id="Shape" d="m57 30c-.5522847 0-1-.4477153-1-1v-4c0-.5522847.4477153-1 1-1s1 .4477153 1 1v4c0 .5522847-.4477153 1-1 1z"/><path id="Shape" d="m59 28h-4c-.5522847 0-1-.4477153-1-1s.4477153-1 1-1h4c.5522847 0 1 .4477153 1 1s-.4477153 1-1 1z"/><path id="Shape" d="m51 6c-.5522847 0-1-.44771525-1-1v-4c0-.55228475.4477153-1 1-1s1 .44771525 1 1v4c0 .55228475-.4477153 1-1 1z"/><path id="Shape" d="m9 33c-.55228475 0-1-.4477153-1-1v-4c0-.5522847.44771525-1 1-1s1 .4477153 1 1v4c0 .5522847-.44771525 1-1 1z"/><path id="Shape" d="m11 31h-4c-.55228475 0-1-.4477153-1-1s.44771525-1 1-1h4c.5522847 0 1 .4477153 1 1s-.4477153 1-1 1z"/></g><path id="Shape" d="m13 56h-1c-.5522847 0-1-.4477153-1-1s.4477153-1 1-1h1c.5522847 0 1 .4477153 1 1s-.4477153 1-1 1z" fill="#805333"/><path id="Shape" d="m53 56h-5c-.5522847 0-1-.4477153-1-1s.4477153-1 1-1h5c.5522847 0 1 .4477153 1 1s-.4477153 1-1 1z" fill="#805333"/><path id="Shape" d="m21 54.18c-.5522847 0-1-.4477153-1-1v-18.18c0-.5522847.4477153-1 1-1s1 .4477153 1 1v18.18c0 .5522847-.4477153 1-1 1z" fill="#bdc3c7"/><path id="Shape" d="m39 54.18c-.5522847 0-1-.4477153-1-1v-18.18c0-.5522847.4477153-1 1-1s1 .4477153 1 1v18.18c0 .5522847-.4477153 1-1 1z" fill="#bdc3c7"/><path id="Shape" d="m40.61 27.28c-1.655935 1.1214124-3.6100784 1.7205437-5.61 1.72h-10c-1.9999216.0005437-3.954065-.5985876-5.61-1.72.6545457-.4014271 1.3611572-.7109903 2.1-.92h17c.7457642.2072859 1.4592135.516896 2.12.92z" fill="#bdc3c7"/><path id="Shape" d="m53 4h-4c-.5522847 0-1-.44771525-1-1s.4477153-1 1-1h4c.5522847 0 1 .44771525 1 1s-.4477153 1-1 1z" fill="#f0c419"/><rect id="Rectangle-path" fill="#ecf0f1" height="26" rx="10" width="30" x="15" y="1"/><path id="Shape" d="m41 11v6c0 3.3137085-2.6862915 6-6 6h-10c-3.3137085 0-6-2.6862915-6-6v-6c0-1.1045695.8954305-2 2-2h18c1.1045695 0 2 .8954305 2 2z" fill="#f29c1f"/><path id="Shape" d="m41 12.75v4.25c0 3.3137085-2.6862915 6-6 6h-10c-3.3137085 0-6-2.6862915-6-6v-1c4.71 1.34 14.13 2.81 22-3.25z" fill="#e57e25"/><path id="Shape" d="m23 15c-.4062651.0023626-.77358-.2413038-.929371-.6165185-.1557909-.3752147-.0690889-.807391.219371-1.0934815l1-1c.2536586-.2536586.623374-.3527235.969878-.259878.3465041.0928454.6171546.3634959.71.71.0928455.346504-.0062194.7162194-.259878.969878-1.06 1.06-1.19 1.29-1.71 1.29z" fill="#f3d55b"/><path id="Shape" d="m24 19c-.4062651.0023626-.77358-.2413038-.929371-.6165185-.1557909-.3752147-.0690889-.807391.219371-1.0934815l5-5c.3921222-.3921222 1.0278778-.3921222 1.42 0s.3921222 1.0278778 0 1.42l-5 5c-.1887188.1871865-.444197.2915368-.71.29z" fill="#f3d55b"/><path id="Shape" d="m30 60h-10c-.5522847 0-1-.4477153-1-1s.4477153-1 1-1h9v-11c0-.5522847.4477153-1 1-1s1 .4477153 1 1v12c0 .5522847-.4477153 1-1 1z" fill="#bdc3c7"/><path id="Shape" d="m21 53h6c1.6568542 0 3 1.3431458 3 3v3h-12v-3c0-1.6568542 1.3431458-3 3-3z" fill="#3f5c6c"/><path id="Shape" d="m33 53h6c1.6568542 0 3 1.3431458 3 3v3h-12v-3c0-1.6568542 1.3431458-3 3-3z" fill="#35495e"/><path id="Shape" d="m48 58h-42c-.55228475 0-1 .4477153-1 1s.44771525 1 1 1h42c.5522847 0 1-.4477153 1-1s-.4477153-1-1-1z" fill="#a56a43"/></g></svg>