<?xml version="1.0" encoding="utf-8"?>
<!-- Generator: Adobe Illustrator 18.0.0, SVG Export Plug-In . SVG Version: 6.00 Build 0)  -->
<!DOCTYPE svg PUBLIC "-//W3C//DTD SVG 1.1//EN" "http://www.w3.org/Graphics/SVG/1.1/DTD/svg11.dtd">
<svg version="1.1" id="Layer_1" xmlns="http://www.w3.org/2000/svg" xmlns:xlink="http://www.w3.org/1999/xlink" x="0px" y="0px"
	 viewBox="0 0 1400 980" enable-background="new 0 0 1400 980" xml:space="preserve">
<g>
	<rect fill="#3A1728" width="1400" height="980"/>
	<path fill="#2F0A20" d="M1400,813.9c-30.3,7.5-59.9,17.6-88.3,30.4c-56.2,25.3-110.3,61.1-171.9,64.5c-69.1,3.8-134-34.4-203-38.9
		c-71.4-4.7-140.2,26.7-211.5,33.2c-60.5,5.5-122.6-7.5-175.7-36.9c-38.7-21.4-74.1-51.7-117.7-59.6c-96-17.5-178.3,79.1-275.8,84.1
		c-51.6,2.6-101.2-21-152.8-22.1c-1.1,0-2.2,0-3.3,0V980h1400V813.9z"/>
	<path fill="#421E2A" d="M0,539c5.5,2.1,10.9,4.4,16.2,7c45,21.9,80.2,60.6,124.7,83.4c59.7,30.7,134.7,29.4,193.3-3.3
		c27.2-15.2,50.6-36.3,77.3-52.5C469.4,538.5,542.1,529,607,548c47.8,14,92.5,42.8,142.3,42.4c47.4-0.4,92.2-27.6,139.5-24.4
		c93.8,6.3,159.1,127,251.8,111.5c54.8-9.2,89.8-63.3,139.4-88.2c36.6-18.4,78.7-19.7,120-18.1V0H0V539z"/>
	<path fill="#4C2632" d="M0,241.1c22.3-9.2,44.8-15.2,68.3-10.2c26.8,5.7,48.4,24.7,71.6,39.2c75.9,47.1,180.1,43.2,252.3-9.3
		c37-26.9,65.1-64.5,101.3-92.5c72.3-56,176.3-67.6,259.2-29.1c63.6,29.6,115.7,86,184.9,97.3c63.9,10.4,128.4-20.5,192.9-15.2
		c87.3,7.2,155.2,77.5,237,108.7c10.6,4,21.4,7.3,32.4,10V0H0V241.1z"/>
	<path fill="#FFFCDF" d="M954.5,980c-6.3-8.4-16.3-13.8-27.6-13.8c-6.3,0-12.2,1.7-17.3,4.7c0.8-2.9,1.2-5.9,1.2-9.1
		c0-19.1-15.5-34.6-34.6-34.6s-34.6,15.5-34.6,34.6c0,0.2,0,0.3,0,0.5c-2.3-0.3-4.6-0.5-6.9-0.5c-3.4,0-6.7,0.4-9.9,1.1
		c-6.8-17.3-23.7-29.6-43.4-29.6c-8.7,0-16.9,2.4-23.9,6.6c-2.1-11-9.4-20.1-19.2-24.7c1.1-3.7,1.7-7.6,1.7-11.6
		c0-14.3-7.5-26.9-18.8-34c0.6-1.9,0.9-4,0.9-6.1c0-12.2-9.9-22.1-22.1-22.1c-12.2,0-22.1,9.9-22.1,22.1c0,2.1,0.3,4.1,0.9,6.1
		c-11.3,7.1-18.8,19.6-18.8,34c0,5.1,1,10,2.7,14.5c-8.1,1.8-14.9,6.9-18.9,13.9c-1.5-0.2-3.1-0.3-4.6-0.3
		c-10.4,0-19.8,4.6-26.1,11.9c-6.5-12.3-19.5-20.7-34.5-20.7c-19.9,0-36.4,15-38.7,34.3c-3.7-2.2-8.1-3.5-12.7-3.5
		c-5.2,0-9.9,1.6-13.9,4.3c-7.6-15.5-23.5-26.2-42-26.2c-25.8,0-46.7,20.9-46.7,46.7c0,0.6,0,1.1,0,1.7H954.5z"/>
	<g>
		<circle opacity="0.35" fill="#E58148" cx="700" cy="333.7" r="310.4"/>
		<circle opacity="0.35" fill="#E58148" cx="700" cy="333.7" r="288.5"/>
		<circle fill="#E47846" cx="700" cy="333.7" r="267.3"/>
		<path fill="#E68A49" d="M967.3,333.7c0-100.7-55.7-188.3-137.9-233.9c-1.4,0.6-3.2,0.5-4.7,0.8c-6.8,1.4-7.5,11.7-3.1,17
			c4.4,5.3,11.5,7.4,17.5,10.8c6,3.4,11.8,9.7,10,16.4c-39,1.6-77.9,3.2-116.9,4.7c15.1,2.8,30.1,5.6,45.2,8.5
			c27.8,5.2,56.4,10.8,79.9,26.4c-10.7,0.5-21.3,3.3-30.9,7.9c16,5,29.8,16.3,37.8,30.9C809,222,752.8,220.9,699.7,236
			c3.4,7.7,12.8,10.8,21.2,10.9c8.4,0.1,16.8-1.9,25.1-0.9c18.9,2.3,33,19.5,51.6,23.3c15.9,3.3,36.1-2.3,45.8,10.7
			c2.8,3.7,4,8.4,7,12.1c6.2,7.7,17.6,8.1,27,11.3s18.3,14.7,11.8,22.2c-8.5,9.6-17.5,16.5-30.7,17.8c-10.1,1-20.5-0.1-30.1,3.1
			c-8.3,2.7-15.3,8.4-22.5,13.5c-35.2,25.4-77.9,40.1-121.2,41.9c36.1,2.6,72.9,5.1,108.3-2.6c25.9-5.6,51-16.8,77.4-16.8
			c3.2,6.5-0.8,14.6-6.9,18.5c-12.1,7.7-33.7,10.1-47.7,13.5c-17,4.2-39.9,12.9-57.4,11.7c26.8,1.8,53.6,3.6,80.4,5.4
			c11.7,0.8,26.9,5.2,26.7,16.8c-9.1,4.1-18.8,6.7-28.7,7.5c1.1,7.8,2.1,15.5,3.2,23.3c-16.3,2.2-32.2,7.7-46.4,16
			c10.2,6,22.5,6.5,33.8,9.8c11.3,3.3,23.1,11.3,23.8,23.1c-20.8,3.5-41.7,7.1-62.5,10.6c-2.3,0.4-4.8,0.9-6.4,2.7
			c-1.9,2.3-1.5,5.6-2.2,8.6c-1.7,7.5-10.2,11-17.6,13.2c-41,12.2-83.1,20.7-125.6,25.4c1.6,2.1,3.2,4.1,5,6
			c18.7,4.2,38.2,6.4,58.2,6.4C847.6,601,967.3,481.3,967.3,333.7z"/>
		<g>
			<path fill="#DF5C39" d="M713.9,543.5c6.5-1.2,12.9-3.5,18.7-6.7c-13.5-2.3-27.1,3-40.8,3.8c-5,0.3-10.1,0-15.2-0.3
				c-17.9-1-35.5-1.9-53.2-1.6c-19,0.3-38,1.5-57,1.9c-11.8,0.3-23.9,0.2-36-0.6c46.2,38,105.2,60.8,169.7,60.8
				c54.5,0,105.2-16.3,147.5-44.4c-4.9,3.2-20.4,1.4-26.4,1.8c-8.8,0.5-17.6,1-26.4,1.5c-16.9,0.9-33.2,5.4-50.2,5.8
				c-5.2,0.1-10.4-0.1-15.6,0.2c-16.5,1.2-32.3,8.8-48.7,7.9c-14.9-0.9-28.6-8.7-43.2-11.8c-2.9-0.6-5.9-1.1-8.8-1.5
				c-9.7-1.4-19.3-2.8-29-4.2c-0.3-2.6,1.8-5,4.3-5.9c2.5-0.9,5.2-0.7,7.8-0.6c24.7,1.1,49.1-6.1,73.8-5.8
				c7.3,0.1,14.6,0.9,21.9,0.3C709.2,544.3,711.6,544,713.9,543.5z"/>
			<path fill="#DF5C39" d="M667.9,135.5c6.1,1.1,12.1,2.9,18,6c-18.9,4.4-39-1-57.9,3.1c-8,1.7-15.6,5.1-23.7,6.2
				c-5.7,0.7-11.5,0.3-17.3,0.3c-7.6,0-15.2,0.8-22.6,2.4c-3.5,0.7-7.1,1.7-9.9,4s-4.4,6.3-2.9,9.6c14.7,3.1,29.8,2.6,44.8,2.1
				c20.5-0.7,41.1-1.3,61.6-2c7.4-0.2,14.8-0.5,22.1,0.8c13,2.2,25,8.9,38.1,10.1c5,0.5,10.1,0.1,15.1,0.3
				c17.9,0.7,35.6,8.3,53.3,5.7c-6-3.7-13.2-5.6-20.3-5.2c-3,0.1-6,0.7-8.9,0.1s-5.8-2.7-6.2-5.7c-0.6-4.8,39.1-0.5,43,0.2
				c16.1,3,32.2,6.3,48.1,10c31.9,7.4,63.5,16.2,94.7,26.4c-6.2-11.8-13.3-23.2-21.1-33.9c-2.5-3.4-13.1-5.9-17-7.5
				c-5.7-2.4-11.5-4.6-17.3-6.7c-11.6-4.2-23.5-7.9-35.5-11.1c-22.9-6-48.6-5.9-70.1-15.8c-3.1-1.4-6.2-3.1-9.3-4.5
				c-8.9-3.9-18.8-5.5-28.4-4.5c-2.2,0.2-4.5,0.6-6.7,0.1c-2.2-0.5-4.4-2-4.8-4.2c-0.6-3.6,3.3-6.2,6.8-7.1c4.2-1.1,8.7-1.1,13-1.1
				c9.2,0,18.3,0,27.5,0c2.5,0,5,0,7.4,0.6c7.2,1.7,14,8.4,20.9,5.6c0.6-5.5-5.3-9.4-10.6-11.1c-15.7-5.3-31-3.2-47.1-4.1
				c-15.2-0.8-30.5,0.2-45.8,0.9c-11.5,0.5-22.5,2.9-34,3.6c-11.6,0.6-23.2,0.2-34.6,2.8c-6.4,1.5-13.9,3.5-18.7-0.9
				c-1.4-3.9,3.2-7.1,7.1-8.4c10-3.3,20.8-4.6,31.3-3.7c6.3,0.6,13.6,1.5,18-3c0.9-0.9,1.6-2,2.7-2.6c1-0.6,2.3-0.6,3.5-0.6
				c9.1-0.1,18.1-0.1,27.2-0.2c0.4-1.7,0.2-3.5-0.6-5c-15.6,0.4-31.1,0.7-46.7,1.1c-9.6,0.2-19.2,0.5-28.4,2.9
				c-20.2,5.4-40.4,7.6-61.1,11.8c-23,13.6-43.8,30.4-61.7,50c3.3-3.6,17.7-4.7,22.5-5.9c7.9-1.9,15.9-3.7,23.9-5.3
				c15.9-3.1,32-5.6,48.2-7.1c15.7-1.5,31.9-2.9,47.6-1.7C652.9,133.8,660.5,134.1,667.9,135.5z"/>
			<path fill="#DF5C39" d="M844.9,246.2c-22.3,5.8-49.9,14.6-65.6-2.4c-5.3-5.7-8.1-13.6-13.9-18.7c-13.4-11.6-33.7-3.6-50.4,2.3
				c-17.6,6.2-36,9.4-54.5,11.3c-16.6,1.7-34.1,0.5-50.2,4.9c-17,4.6-38.2,1.7-55.7,1.5c-19.5-0.3-39-1.1-58.4-2.3
				c-1.7-0.1-3.6-0.3-5-1.2s-2.3-3.1-1.3-4.5c0.7-0.9,1.9-1.3,3-1.6c35.1-9.1,71.6-13,107.9-11.5c1.6-1.3,1.1-4.1-0.5-5.4
				c-1.6-1.3-3.8-1.6-5.9-1.9c-23.4-2.6-46.9-4.4-70.5-5.5c-10.6-0.5-21.5-1.4-32-0.2c-3.9,0.5-29.3-0.2-30.8,2.8
				c-14,27.8-23.3,58.4-26.8,90.6c15.6-4.3,31.7-6.4,48.2-5.4c19.3,1.1,38.2,6.5,57.5,6.9c61.6,1.3,122-47.5,180.2-27.1
				c10.4,3.7,19.9,9.4,30.3,13.1c41.3,14.8,85.9-4.6,129.2-12.2c27.3-4.8,54.6-4.7,81.9-1.6c-2.2-10.6-5.1-21-8.5-31.1
				C917.2,238.6,880.9,236.8,844.9,246.2z"/>
			<path fill="#DF5C39" d="M812,449.8c-19-1.7-39.5-3.1-56,6.5c-8.2,4.7-14.8,11.9-22.9,16.8c-9.7,9.7-29.5,7.6-41.7,8.4
				c-14.4,0.8-28.5,0.3-43-0.4c-8-0.4-16.3-0.8-23.5-4.4c-1.6-4,3.3-7.5,7.4-8.8c28.1-9,59.7-1.8,87.2-12.3c2-0.8,4-1.7,5.3-3.4
				c1.3-1.7,1.3-4.5-0.4-5.8c-14.8,4.3-30.1,6.6-45.4,6.8c-14.1,0.2-27.3-3.6-41.3-5.7c-17.3-2.6-34.8-4.3-52.3-5.1
				c-17.4-0.8-35.2-1.1-52.6,0.4c-16,1.3-31.4,0.9-47.6,0.1c-4.2-0.2-8.8-0.3-12.3,2.1c-1.6,1.1-2.9,3.4-1.8,5
				c0.6,0.9,1.8,1.2,2.8,1.4c28.9,6,59,1.8,88.4,5.2c-4.4,5.1-12,5.5-18.7,5.5c-7.4,0-14.9,0-22.3-0.1c-1.4,0-3.3,0.4-3.4,1.9
				c0,1,1.1,1.7,2,2.1c21,9.6,48.6,10.5,71.1,7.3c6.9,4.2-5.2,12-13.1,10.8c-36.7-6-73.5-11.9-110.2-17.9
				c9.5,16.6,20.7,32.1,33.4,46.3c96.2,8.9,193.5,5.1,288.6-11.5c20.8-3.6,41.6-7.9,62.6-10.1c21.9-2.4,44.4-2.7,66.7-3.8
				c5.9-8.4,11.3-17.1,16.2-26.2C894.2,457,853.1,453.4,812,449.8z"/>
			<path fill="#DF5C39" d="M844.9,349.3c-10.4,4.1-19.1,11.4-28.5,17.5c-52.2,34.4-119.9,29.9-182.2,24.1
				c29.8-19.1,65.8-28.3,101.1-26c11.6,0.8,23.4,2.7,34.6,0c11.3-2.7,22.1-11.8,22.3-23.4c-46.9,4.9-93.8,9.7-140.7,14.6
				c-15,1.6-30.3,3.2-44.4,8.4c-21.8,8-41.1,24.5-64.3,25.2c-17.1,0.5-33-7.6-48.8-14.1c-19.3-7.9-39.5-13.4-60.1-16.5
				c2.2,23.1,7.3,45.3,15,66.4c26.1,1,52.6,2.6,77.5-1.6c18.3-3.1,36.2-9.5,54.8-9.8c14.1-0.2,28,3.1,41.9,5.7
				c50.5,9.3,102.9,8.3,153.1-2.8c12-2.7,23.8-5.9,35-10.9c9.6-4.3,18.7-9.9,28.5-13.8c37.9-15,78.8-2.2,119.8,5.3
				c1.5-6,2.7-12.1,3.8-18.3c-4.5-1.2-9-2.6-13.4-4.2C915.2,362.1,879.4,335.8,844.9,349.3z"/>
		</g>
	</g>
	<g>
		<path fill="#CBCCCC" d="M749,763.5V390.4c-1.3-40.8-24.5-65.7-38.6-77c-6.1-5-14.8-5-21,0c-14,11.3-37.3,36.2-38.6,77v373.2H749z"
			/>
		<path fill="#CBCCCC" d="M639.9,849V525.7c-1-32.2-26.9-46.3-26.9-46.3S587,493.5,586,525.7V849L572.9,863v29.2h40h40V863
			L639.9,849z"/>
		<path fill="#CBCCCC" d="M760.1,849V525.7c1-32.2,26.9-46.3,26.9-46.3s25.9,14.1,26.9,46.3V849l13.1,14.1v29.2h-40h-40V863
			L760.1,849z"/>
		<path fill="#B3B4B5" d="M827.1,892.2V863L814,849V525.7c-1-32.2-26.9-46.3-26.9-46.3v412.9H827.1z"/>
		<path fill="#B3B4B5" d="M572.9,892.2V863L586,849V525.7c1-32.2,26.9-46.3,26.9-46.3v412.9H572.9z"/>
		<polygon fill="#A7A9AA" points="467.9,792.7 644.7,809.4 755.3,809.4 932.1,792.7 		"/>
		<path fill="#E9E8DB" d="M737.2,795.2V444.7c-1-31-18.6-49.9-29.3-58.5c-4.7-3.8-11.3-3.8-15.9,0c-10.6,8.6-28.3,27.5-29.3,58.5
			v350.5l-18.1,14.2v40.4H700h55.3v-40.4L737.2,795.2z"/>
		<path fill="#A7A9AA" d="M721.5,507l0-61.8c-0.7-22.9-13-37.6-21.5-45c-8.5,7.4-20.7,22.1-21.4,44.5V507H721.5z"/>
		<path fill="#E6E6E5" d="M662.8,643.8l-178.7,94.4c-10,5.3-16.2,15.6-16.2,26.9v27.6h194.9V643.8z"/>
		<path fill="#E6E6E5" d="M737.2,643.8l178.7,94.4c10,5.3,16.2,15.6,16.2,26.9v27.6H737.2V643.8z"/>
		<rect x="665.3" y="536.6" fill="#B3B4B5" width="69.5" height="6.6"/>
		<rect x="665.3" y="599.2" fill="#B3B4B5" width="69.5" height="6.6"/>
		<rect x="665.3" y="763.5" fill="#B3B4B5" width="69.5" height="6.6"/>
		<rect x="649.2" y="831.2" fill="#B3B4B5" width="101.5" height="6.6"/>
		<path fill="#CBCCCC" d="M539.6,719.4v46.9c0,6.1,4.9,11,11,11h30.2c25,0,45.3-20.3,45.3-45.3v-58.3L539.6,719.4z"/>
		<path fill="#CBCCCC" d="M860.4,719.4v46.9c0,6.1-4.9,11-11,11h-30.2c-25,0-45.3-20.3-45.3-45.3v-58.3L860.4,719.4z"/>
		<rect x="586" y="560.3" fill="#A7A9AA" width="53.9" height="38.8"/>
		<rect x="586" y="560.3" fill="#949698" width="27" height="38.8"/>
		<rect x="760.1" y="560.3" fill="#A7A9AA" width="53.9" height="38.8"/>
		<rect x="787" y="560.3" fill="#949698" width="27" height="38.8"/>
	</g>
	<g>
		<circle fill="#E8A04D" cx="231.5" cy="660.6" r="45.5"/>
		<g>
			<g>
				<g>
					<path fill="#F2BD7E" d="M233.9,696.4c1.1-0.2,2.2-0.6,3.2-1.1c-2.3-0.4-4.6,0.5-7,0.7c-0.9,0.1-1.7,0-2.6,0
						c-3-0.2-6-0.3-9.1-0.3c-3.2,0.1-6.5,0.2-9.7,0.3c-2,0-4.1,0-6.1-0.1c7.9,6.5,17.9,10.4,28.9,10.4c9.3,0,17.9-2.8,25.1-7.6
						c-0.8,0.6-3.5,0.2-4.5,0.3c-1.5,0.1-3,0.2-4.5,0.3c-2.9,0.2-5.7,0.9-8.6,1c-0.9,0-1.8,0-2.7,0c-2.8,0.2-5.5,1.5-8.3,1.3
						c-2.5-0.1-4.9-1.5-7.4-2c-0.5-0.1-1-0.2-1.5-0.3c-1.6-0.2-3.3-0.5-4.9-0.7c-0.1-0.4,0.3-0.9,0.7-1c0.4-0.2,0.9-0.1,1.3-0.1
						c4.2,0.2,8.4-1,12.6-1c1.2,0,2.5,0.1,3.7,0.1C233.1,696.5,233.5,696.4,233.9,696.4z"/>
				</g>
				<g>
					<path fill="#F2BD7E" d="M226.1,626.8c1,0.2,2.1,0.5,3.1,1c-3.2,0.7-6.6-0.2-9.9,0.5c-1.4,0.3-2.7,0.9-4,1.1c-1,0.1-2,0.1-3,0.1
						c-1.3,0-2.6,0.1-3.9,0.4c-0.6,0.1-1.2,0.3-1.7,0.7s-0.7,1.1-0.5,1.6c2.5,0.5,5.1,0.4,7.6,0.4c3.5-0.1,7-0.2,10.5-0.3
						c1.3,0,2.5-0.1,3.8,0.1c2.2,0.4,4.3,1.5,6.5,1.7c0.9,0.1,1.7,0,2.6,0c3.1,0.1,6.1,1.4,9.1,1c-1-0.6-2.2-0.9-3.5-0.9
						c-0.5,0-1,0.1-1.5,0c-0.5-0.1-1-0.5-1-1c-0.1-0.8,6.7-0.1,7.3,0c2.7,0.5,5.5,1.1,8.2,1.7c5.4,1.3,10.8,2.8,16.1,4.5
						c-1.1-2-2.3-3.9-3.6-5.8c-0.4-0.6-2.2-1-2.9-1.3c-1-0.4-2-0.8-2.9-1.1c-2-0.7-4-1.3-6-1.9c-3.9-1-8.3-1-12-2.7
						c-0.5-0.2-1-0.5-1.6-0.8c-1.5-0.7-3.2-0.9-4.8-0.8c-0.4,0-0.8,0.1-1.1,0c-0.4-0.1-0.7-0.3-0.8-0.7c-0.1-0.6,0.6-1.1,1.2-1.2
						c0.7-0.2,1.5-0.2,2.2-0.2c1.6,0,3.1,0,4.7,0c0.4,0,0.9,0,1.3,0.1c1.2,0.3,2.4,1.4,3.6,1c0.1-0.9-0.9-1.6-1.8-1.9
						c-2.7-0.9-5.3-0.5-8-0.7c-2.6-0.1-5.2,0-7.8,0.2c-2,0.1-3.8,0.5-5.8,0.6c-2,0.1-4,0-5.9,0.5c-1.1,0.2-2.4,0.6-3.2-0.2
						c-0.2-0.7,0.5-1.2,1.2-1.4c1.7-0.6,3.5-0.8,5.3-0.6c1.1,0.1,2.3,0.3,3.1-0.5c0.1-0.2,0.3-0.3,0.5-0.4c0.2-0.1,0.4-0.1,0.6-0.1
						c1.5,0,3.1,0,4.6,0c0.1-0.3,0-0.6-0.1-0.9c-2.7,0.1-5.3,0.1-8,0.2c-1.6,0-3.3,0.1-4.8,0.5c-3.4,0.9-6.9,1.3-10.4,2
						c-3.9,2.3-7.5,5.2-10.5,8.5c0.6-0.6,3-0.8,3.8-1c1.4-0.3,2.7-0.6,4.1-0.9c2.7-0.5,5.5-1,8.2-1.2c2.7-0.3,5.4-0.5,8.1-0.3
						C223.5,626.5,224.8,626.6,226.1,626.8z"/>
				</g>
				<g>
					<path fill="#F2BD7E" d="M256.2,645.7c-3.8,1-8.5,2.5-11.2-0.4c-0.9-1-1.4-2.3-2.4-3.2c-2.3-2-5.7-0.6-8.6,0.4
						c-3,1.1-6.1,1.6-9.3,1.9c-2.8,0.3-5.8,0.1-8.6,0.8c-2.9,0.8-6.5,0.3-9.5,0.2c-3.3-0.1-6.6-0.2-10-0.4c-0.3,0-0.6,0-0.8-0.2
						c-0.2-0.2-0.4-0.5-0.2-0.8c0.1-0.2,0.3-0.2,0.5-0.3c6-1.6,12.2-2.2,18.4-2c0.3-0.2,0.2-0.7-0.1-0.9c-0.3-0.2-0.6-0.3-1-0.3
						c-4-0.4-8-0.8-12-0.9c-1.8-0.1-3.7-0.2-5.5,0c-0.7,0.1-5,0-5.2,0.5c-2.4,4.7-4,9.9-4.6,15.4c2.7-0.7,5.4-1.1,8.2-0.9
						c3.3,0.2,6.5,1.1,9.8,1.2c10.5,0.2,20.8-8.1,30.7-4.6c1.8,0.6,3.4,1.6,5.2,2.2c7,2.5,14.6-0.8,22-2.1c4.6-0.8,9.3-0.8,14-0.3
						c-0.4-1.8-0.9-3.6-1.5-5.3C268.6,644.4,262.4,644.1,256.2,645.7z"/>
				</g>
				<g>
					<path fill="#F2BD7E" d="M250.6,680.4c-3.2-0.3-6.7-0.5-9.5,1.1c-1.4,0.8-2.5,2-3.9,2.9c-1.7,1.7-5,1.3-7.1,1.4
						c-2.4,0.1-4.9,0.1-7.3-0.1c-1.4-0.1-2.8-0.1-4-0.7c-0.3-0.7,0.6-1.3,1.3-1.5c4.8-1.5,10.2-0.3,14.9-2.1
						c0.3-0.1,0.7-0.3,0.9-0.6c0.2-0.3,0.2-0.8-0.1-1c-2.5,0.7-5.1,1.1-7.7,1.2c-2.4,0-4.7-0.6-7-1c-3-0.4-5.9-0.7-8.9-0.9
						c-3-0.1-6-0.2-9,0.1c-2.7,0.2-5.3,0.2-8.1,0c-0.7,0-1.5-0.1-2.1,0.4c-0.3,0.2-0.5,0.6-0.3,0.8c0.1,0.1,0.3,0.2,0.5,0.2
						c4.9,1,10.1,0.3,15.1,0.9c-0.7,0.9-2,0.9-3.2,0.9c-1.3,0-2.5,0-3.8,0c-0.2,0-0.6,0.1-0.6,0.3c0,0.2,0.2,0.3,0.3,0.4
						c3.6,1.6,8.3,1.8,12.1,1.2c1.2,0.7-0.9,2.1-2.2,1.8c-6.3-1-12.5-2-18.8-3c1.6,2.8,3.5,5.5,5.7,7.9c16.4,1.5,33,0.9,49.2-2
						c3.6-0.6,7.1-1.3,10.7-1.7c3.7-0.4,7.6-0.5,11.4-0.7c1-1.4,1.9-2.9,2.8-4.5C264.6,681.6,257.6,681,250.6,680.4z"/>
				</g>
				<g>
					<path fill="#F2BD7E" d="M256.2,663.3c-1.8,0.7-3.3,1.9-4.8,3c-8.9,5.9-20.4,5.1-31,4.1c5.1-3.2,11.2-4.8,17.2-4.4
						c2,0.1,4,0.5,5.9,0s3.8-2,3.8-4c-8,0.8-16,1.7-24,2.5c-2.6,0.3-5.2,0.5-7.6,1.4c-3.7,1.4-7,4.2-11,4.3
						c-2.9,0.1-5.6-1.3-8.3-2.4c-3.3-1.3-6.7-2.3-10.2-2.8c0.4,3.9,1.2,7.7,2.5,11.3c4.4,0.2,9,0.4,13.2-0.3
						c3.1-0.5,6.2-1.6,9.3-1.7c2.4,0,4.8,0.5,7.1,1c8.6,1.6,17.5,1.4,26.1-0.5c2-0.5,4.1-1,6-1.9c1.6-0.7,3.2-1.7,4.9-2.4
						c6.5-2.6,13.4-0.4,20.4,0.9c0.3-1,0.5-2.1,0.6-3.1c-0.8-0.2-1.5-0.4-2.3-0.7C268.2,665.4,262.1,661,256.2,663.3z"/>
				</g>
			</g>
		</g>
	</g>
	<g>
		<circle fill="#5FBBD4" cx="1217.3" cy="184.6" r="36"/>
		<g>
			<g>
				<g>
					<path fill="#BADFF6" d="M1219.2,212.9c0.9-0.2,1.7-0.5,2.5-0.9c-1.8-0.3-3.7,0.4-5.5,0.5c-0.7,0-1.4,0-2,0
						c-2.4-0.1-4.8-0.3-7.2-0.2c-2.6,0-5.1,0.2-7.7,0.3c-1.6,0-3.2,0-4.8-0.1c6.2,5.1,14.2,8.2,22.8,8.2c7.3,0,14.2-2.2,19.8-6
						c-0.7,0.4-2.7,0.2-3.6,0.2c-1.2,0.1-2.4,0.1-3.6,0.2c-2.3,0.1-4.5,0.7-6.8,0.8c-0.7,0-1.4,0-2.1,0c-2.2,0.2-4.3,1.2-6.6,1.1
						c-2-0.1-3.8-1.2-5.8-1.6c-0.4-0.1-0.8-0.1-1.2-0.2c-1.3-0.2-2.6-0.4-3.9-0.6c0-0.3,0.2-0.7,0.6-0.8c0.3-0.1,0.7-0.1,1-0.1
						c3.3,0.1,6.6-0.8,9.9-0.8c1,0,2,0.1,2.9,0C1218.6,213,1218.9,212.9,1219.2,212.9z"/>
				</g>
				<g>
					<path fill="#BADFF6" d="M1213,158c0.8,0.1,1.6,0.4,2.4,0.8c-2.5,0.6-5.2-0.1-7.8,0.4c-1.1,0.2-2.1,0.7-3.2,0.8
						c-0.8,0.1-1.6,0-2.3,0c-1,0-2,0.1-3,0.3c-0.5,0.1-1,0.2-1.3,0.5c-0.4,0.3-0.6,0.8-0.4,1.3c2,0.4,4,0.4,6,0.3
						c2.8-0.1,5.5-0.2,8.3-0.3c1,0,2-0.1,3,0.1c1.7,0.3,3.4,1.2,5.1,1.4c0.7,0.1,1.4,0,2,0c2.4,0.1,4.8,1.1,7.2,0.8
						c-0.8-0.5-1.8-0.7-2.7-0.7c-0.4,0-0.8,0.1-1.2,0c-0.4-0.1-0.8-0.4-0.8-0.8c-0.1-0.6,5.3-0.1,5.8,0c2.2,0.4,4.3,0.8,6.5,1.3
						c4.3,1,8.5,2.2,12.7,3.5c-0.8-1.6-1.8-3.1-2.8-4.6c-0.3-0.5-1.8-0.8-2.3-1c-0.8-0.3-1.5-0.6-2.3-0.9c-1.6-0.6-3.2-1.1-4.8-1.5
						c-3.1-0.8-6.5-0.8-9.4-2.1c-0.4-0.2-0.8-0.4-1.3-0.6c-1.2-0.5-2.5-0.7-3.8-0.6c-0.3,0-0.6,0.1-0.9,0s-0.6-0.3-0.6-0.6
						c-0.1-0.5,0.4-0.8,0.9-1c0.6-0.1,1.2-0.1,1.8-0.1c1.2,0,2.5,0,3.7,0c0.3,0,0.7,0,1,0.1c1,0.2,1.9,1.1,2.8,0.8
						c0.1-0.7-0.7-1.3-1.4-1.5c-2.1-0.7-4.2-0.4-6.3-0.6c-2-0.1-4.1,0-6.2,0.1c-1.5,0.1-3,0.4-4.6,0.5c-1.6,0.1-3.1,0-4.7,0.4
						c-0.9,0.2-1.9,0.5-2.5-0.1c-0.2-0.5,0.4-1,1-1.1c1.4-0.5,2.8-0.6,4.2-0.5c0.8,0.1,1.8,0.2,2.4-0.4c0.1-0.1,0.2-0.3,0.4-0.4
						c0.1-0.1,0.3-0.1,0.5-0.1c1.2,0,2.4,0,3.7,0c0.1-0.2,0-0.5-0.1-0.7c-2.1,0-4.2,0.1-6.3,0.1c-1.3,0-2.6,0.1-3.8,0.4
						c-2.7,0.7-5.4,1-8.2,1.6c-3.1,1.8-5.9,4.1-8.3,6.7c0.4-0.5,2.4-0.6,3-0.8c1.1-0.3,2.1-0.5,3.2-0.7c2.1-0.4,4.3-0.8,6.5-1
						c2.1-0.2,4.3-0.4,6.4-0.2C1211,157.7,1212,157.8,1213,158z"/>
				</g>
				<g>
					<path fill="#BADFF6" d="M1236.8,172.8c-3,0.8-6.7,2-8.8-0.3c-0.7-0.8-1.1-1.8-1.9-2.5c-1.8-1.6-4.5-0.5-6.8,0.3
						c-2.4,0.8-4.8,1.3-7.3,1.5c-2.2,0.2-4.6,0.1-6.8,0.7c-2.3,0.6-5.1,0.2-7.5,0.2c-2.6,0-5.2-0.1-7.9-0.3c-0.2,0-0.5,0-0.7-0.2
						c-0.2-0.1-0.3-0.4-0.2-0.6c0.1-0.1,0.2-0.2,0.4-0.2c4.7-1.2,9.6-1.8,14.5-1.5c0.2-0.2,0.1-0.6-0.1-0.7s-0.5-0.2-0.8-0.3
						c-3.2-0.4-6.3-0.6-9.5-0.7c-1.4-0.1-2.9-0.2-4.3,0c-0.5,0.1-3.9,0-4.1,0.4c-1.9,3.7-3.1,7.9-3.6,12.2c2.1-0.6,4.3-0.9,6.5-0.7
						c2.6,0.2,5.1,0.9,7.7,0.9c8.3,0.2,16.4-6.4,24.3-3.6c1.4,0.5,2.7,1.3,4.1,1.8c5.6,2,11.6-0.6,17.4-1.6c3.7-0.6,7.4-0.6,11-0.2
						c-0.3-1.4-0.7-2.8-1.2-4.2C1246.6,171.8,1241.7,171.6,1236.8,172.8z"/>
				</g>
				<g>
					<path fill="#BADFF6" d="M1232.4,200.2c-2.6-0.2-5.3-0.4-7.5,0.9c-1.1,0.6-2,1.6-3.1,2.3c-1.3,1.3-4,1-5.6,1.1
						c-1.9,0.1-3.8,0-5.8,0c-1.1-0.1-2.2-0.1-3.2-0.6c-0.2-0.5,0.4-1,1-1.2c3.8-1.2,8-0.2,11.7-1.7c0.3-0.1,0.5-0.2,0.7-0.5
						s0.2-0.6,0-0.8c-2,0.6-4,0.9-6.1,0.9c-1.9,0-3.7-0.5-5.6-0.8c-2.3-0.4-4.7-0.6-7-0.7c-2.3-0.1-4.7-0.1-7.1,0.1
						c-2.1,0.2-4.2,0.1-6.4,0c-0.6,0-1.2,0-1.7,0.3c-0.2,0.1-0.4,0.5-0.2,0.7c0.1,0.1,0.2,0.2,0.4,0.2c3.9,0.8,7.9,0.2,11.9,0.7
						c-0.6,0.7-1.6,0.7-2.5,0.7c-1,0-2,0-3,0c-0.2,0-0.5,0.1-0.5,0.3c0,0.1,0.1,0.2,0.3,0.3c2.8,1.3,6.5,1.4,9.6,1
						c0.9,0.6-0.7,1.6-1.8,1.4c-4.9-0.8-9.9-1.6-14.8-2.4c1.3,2.2,2.8,4.3,4.5,6.2c12.9,1.2,26,0.7,38.8-1.5
						c2.8-0.5,5.6-1.1,8.4-1.4c3-0.3,6-0.4,9-0.5c0.8-1.1,1.5-2.3,2.2-3.5C1243.5,201.2,1237.9,200.7,1232.4,200.2z"/>
				</g>
				<g>
					<path fill="#BADFF6" d="M1236.8,186.7c-1.4,0.5-2.6,1.5-3.8,2.4c-7,4.6-16.1,4-24.5,3.2c4-2.6,8.9-3.8,13.6-3.5
						c1.6,0.1,3.1,0.4,4.7,0c1.5-0.4,3-1.6,3-3.1c-6.3,0.7-12.6,1.3-18.9,2c-2,0.2-4.1,0.4-6,1.1c-2.9,1.1-5.5,3.3-8.7,3.4
						c-2.3,0.1-4.4-1-6.6-1.9c-2.6-1.1-5.3-1.8-8.1-2.2c0.3,3.1,1,6.1,2,8.9c3.5,0.1,7.1,0.3,10.4-0.2c2.5-0.4,4.9-1.3,7.4-1.3
						c1.9,0,3.8,0.4,5.6,0.8c6.8,1.2,13.9,1.1,20.6-0.4c1.6-0.4,3.2-0.8,4.7-1.5c1.3-0.6,2.5-1.3,3.8-1.9c5.1-2,10.6-0.3,16.1,0.7
						c0.2-0.8,0.4-1.6,0.5-2.5c-0.6-0.2-1.2-0.4-1.8-0.6C1246.3,188.4,1241.5,184.9,1236.8,186.7z"/>
				</g>
			</g>
		</g>
	</g>
	<path fill="#EFD0C3" d="M248.3,173.1l4.3-6.8l-6.8,4.3c-1.2,0.8-2.8,0.8-4.1,0l-6.8-4.3l4.3,6.8c0.8,1.2,0.8,2.8,0,4.1l-4.3,6.8
		l6.8-4.3c1.2-0.8,2.8-0.8,4.1,0l6.8,4.3l-4.3-6.8C247.5,176,247.5,174.4,248.3,173.1z"/>
	<path fill="#EFD0C3" d="M123,150.7l2.9-4.5l-4.5,2.9c-0.8,0.5-1.9,0.5-2.7,0l-4.5-2.9l2.9,4.5c0.5,0.8,0.5,1.9,0,2.7l-2.9,4.5
		l4.5-2.9c0.8-0.5,1.9-0.5,2.7,0l4.5,2.9l-2.9-4.5C122.5,152.6,122.5,151.5,123,150.7z"/>
	<path fill="#EFD0C3" d="M141.3,61.4l2.9-4.5l-4.5,2.9c-0.8,0.5-1.9,0.5-2.7,0l-4.5-2.9l2.9,4.5c0.5,0.8,0.5,1.9,0,2.7l-2.9,4.5
		l4.5-2.9c0.8-0.5,1.9-0.5,2.7,0l4.5,2.9l-2.9-4.5C140.7,63.3,140.7,62.2,141.3,61.4z"/>
	<path fill="#EFD0C3" d="M505.8,38.1l2.9-4.5l-4.5,2.9c-0.8,0.5-1.9,0.5-2.7,0l-4.5-2.9l2.9,4.5c0.5,0.8,0.5,1.9,0,2.7l-2.9,4.5
		l4.5-2.9c0.8-0.5,1.9-0.5,2.7,0l4.5,2.9l-2.9-4.5C505.3,40,505.3,38.9,505.8,38.1z"/>
	<path fill="#EFD0C3" d="M383.8,158.4l2.9-4.5l-4.5,2.9c-0.8,0.5-1.9,0.5-2.7,0l-4.5-2.9l2.9,4.5c0.5,0.8,0.5,1.9,0,2.7l-2.9,4.5
		l4.5-2.9c0.8-0.5,1.9-0.5,2.7,0l4.5,2.9l-2.9-4.5C383.3,160.2,383.3,159.2,383.8,158.4z"/>
	<path fill="#EFD0C3" d="M296.7,55.6l2.9-4.5l-4.5,2.9c-0.8,0.5-1.9,0.5-2.7,0l-4.5-2.9l2.9,4.5c0.5,0.8,0.5,1.9,0,2.7l-2.9,4.5
		l4.5-2.9c0.8-0.5,1.9-0.5,2.7,0l4.5,2.9l-2.9-4.5C296.2,57.4,296.2,56.4,296.7,55.6z"/>
	<path fill="#EFD0C3" d="M228.7,18.6l2.9-4.5L227,17c-0.8,0.5-1.9,0.5-2.7,0l-4.5-2.9l2.9,4.5c0.5,0.8,0.5,1.9,0,2.7l-2.9,4.5
		l4.5-2.9c0.8-0.5,1.9-0.5,2.7,0l4.5,2.9l-2.9-4.5C228.2,20.5,228.2,19.4,228.7,18.6z"/>
	<path fill="#EFD0C3" d="M111.3,18.6l2.9-4.5l-4.5,2.9c-0.8,0.5-1.9,0.5-2.7,0l-4.5-2.9l2.9,4.5c0.5,0.8,0.5,1.9,0,2.7l-2.9,4.5
		L107,23c0.8-0.5,1.9-0.5,2.7,0l4.5,2.9l-2.9-4.5C110.8,20.5,110.8,19.4,111.3,18.6z"/>
	<path fill="#EFD0C3" d="M71.2,72.5l2.9-4.5l-4.5,2.9c-0.8,0.5-1.9,0.5-2.7,0L62.4,68l2.9,4.5c0.5,0.8,0.5,1.9,0,2.7l-2.9,4.5
		l4.5-2.9c0.8-0.5,1.9-0.5,2.7,0l4.5,2.9l-2.9-4.5C70.7,74.4,70.7,73.3,71.2,72.5z"/>
	<path fill="#EFD0C3" d="M41.4,44l2.9-4.5l-4.5,2.9c-0.8,0.5-1.9,0.5-2.7,0l-4.5-2.9l2.9,4.5c0.5,0.8,0.5,1.9,0,2.7l-2.9,4.5
		l4.5-2.9c0.8-0.5,1.9-0.5,2.7,0l4.5,2.9l-2.9-4.5C40.9,45.8,40.9,44.8,41.4,44z"/>
	<path fill="#EFD0C3" d="M29.7,291.6l2.9-4.5L28,290c-0.8,0.5-1.9,0.5-2.7,0l-4.5-2.9l2.9,4.5c0.5,0.8,0.5,1.9,0,2.7l-2.9,4.5
		l4.5-2.9c0.8-0.5,1.9-0.5,2.7,0l4.5,2.9l-2.9-4.5C29.2,293.5,29.2,292.5,29.7,291.6z"/>
	<path fill="#EFD0C3" d="M189.3,494.5l2.9-4.5l-4.5,2.9c-0.8,0.5-1.9,0.5-2.7,0l-4.5-2.9l2.9,4.5c0.5,0.8,0.5,1.9,0,2.7l-2.9,4.5
		l4.5-2.9c0.8-0.5,1.9-0.5,2.7,0l4.5,2.9l-2.9-4.5C188.8,496.4,188.8,495.3,189.3,494.5z"/>
	<path fill="#EFD0C3" d="M1223,353.2l2.9-4.5l-4.5,2.9c-0.8,0.5-1.9,0.5-2.7,0l-4.5-2.9l2.9,4.5c0.5,0.8,0.5,1.9,0,2.7l-2.9,4.5
		l4.5-2.9c0.8-0.5,1.9-0.5,2.7,0l4.5,2.9l-2.9-4.5C1222.5,355,1222.5,354,1223,353.2z"/>
	<path fill="#EFD0C3" d="M1054.6,86.6l2.9-4.5L1053,85c-0.8,0.5-1.9,0.5-2.7,0l-4.5-2.9l2.9,4.5c0.5,0.8,0.5,1.9,0,2.7l-2.9,4.5
		l4.5-2.9c0.8-0.5,1.9-0.5,2.7,0l4.5,2.9l-2.9-4.5C1054.1,88.5,1054.1,87.4,1054.6,86.6z"/>
	<path fill="#EFD0C3" d="M810,32.3l2.9-4.5l-4.5,2.9c-0.8,0.5-1.9,0.5-2.7,0l-4.5-2.9l2.9,4.5c0.5,0.8,0.5,1.9,0,2.7l-2.9,4.5
		l4.5-2.9c0.8-0.5,1.9-0.5,2.7,0l4.5,2.9L810,35C809.5,34.1,809.5,33.1,810,32.3z"/>
	<path fill="#EFD0C3" d="M604.9,18.6l2.9-4.5l-4.5,2.9c-0.8,0.5-1.9,0.5-2.7,0l-4.5-2.9l2.9,4.5c0.5,0.8,0.5,1.9,0,2.7l-2.9,4.5
		l4.5-2.9c0.8-0.5,1.9-0.5,2.7,0l4.5,2.9l-2.9-4.5C604.4,20.5,604.4,19.4,604.9,18.6z"/>
	<path fill="#EFD0C3" d="M994.2,23.7l2.9-4.5l-4.5,2.9c-0.8,0.5-1.9,0.5-2.7,0l-4.5-2.9l2.9,4.5c0.5,0.8,0.5,1.9,0,2.7l-2.9,4.5
		l4.5-2.9c0.8-0.5,1.9-0.5,2.7,0l4.5,2.9l-2.9-4.5C993.7,25.5,993.7,24.5,994.2,23.7z"/>
	<path fill="#EFD0C3" d="M1203.4,23.7l2.9-4.5l-4.5,2.9c-0.8,0.5-1.9,0.5-2.7,0l-4.5-2.9l2.9,4.5c0.5,0.8,0.5,1.9,0,2.7l-2.9,4.5
		l4.5-2.9c0.8-0.5,1.9-0.5,2.7,0l4.5,2.9l-2.9-4.5C1202.8,25.5,1202.8,24.5,1203.4,23.7z"/>
	<path fill="#EFD0C3" d="M1372.9,18.6l2.9-4.5l-4.5,2.9c-0.8,0.5-1.9,0.5-2.7,0l-4.5-2.9l2.9,4.5c0.5,0.8,0.5,1.9,0,2.7l-2.9,4.5
		l4.5-2.9c0.8-0.5,1.9-0.5,2.7,0l4.5,2.9l-2.9-4.5C1372.4,20.5,1372.4,19.4,1372.9,18.6z"/>
	<path fill="#EFD0C3" d="M1340.8,164.2l2.9-4.5l-4.5,2.9c-0.8,0.5-1.9,0.5-2.7,0l-4.5-2.9l2.9,4.5c0.5,0.8,0.5,1.9,0,2.7l-2.9,4.5
		l4.5-2.9c0.8-0.5,1.9-0.5,2.7,0l4.5,2.9l-2.9-4.5C1340.2,166.1,1340.2,165.1,1340.8,164.2z"/>
	<path fill="#EFD0C3" d="M1289.8,494.5l2.9-4.5l-4.5,2.9c-0.8,0.5-1.9,0.5-2.7,0l-4.5-2.9l2.9,4.5c0.5,0.8,0.5,1.9,0,2.7l-2.9,4.5
		l4.5-2.9c0.8-0.5,1.9-0.5,2.7,0l4.5,2.9l-2.9-4.5C1289.2,496.4,1289.2,495.3,1289.8,494.5z"/>
	<path fill="#EFD0C3" d="M190.8,252.3l4.3-6.8l-6.8,4.3c-1.2,0.8-2.8,0.8-4.1,0l-6.8-4.3l4.3,6.8c0.8,1.2,0.8,2.8,0,4.1l-4.3,6.8
		l6.8-4.3c1.2-0.8,2.8-0.8,4.1,0l6.8,4.3l-4.3-6.8C190,255.1,190,253.5,190.8,252.3z"/>
	<path fill="#EFD0C3" d="M385.3,234.6l4.3-6.8l-6.8,4.3c-1.2,0.8-2.8,0.8-4.1,0l-6.8-4.3l4.3,6.8c0.8,1.2,0.8,2.8,0,4.1l-4.3,6.8
		l6.8-4.3c1.2-0.8,2.8-0.8,4.1,0l6.8,4.3l-4.3-6.8C384.5,237.4,384.5,235.8,385.3,234.6z"/>
	<path fill="#EFD0C3" d="M1137.4,31.8l4.3-6.8l-6.8,4.3c-1.2,0.8-2.8,0.8-4.1,0L1124,25l4.3,6.8c0.8,1.2,0.8,2.8,0,4.1l-4.3,6.8
		l6.8-4.3c1.2-0.8,2.8-0.8,4.1,0l6.8,4.3l-4.3-6.8C1136.6,34.6,1136.6,33.1,1137.4,31.8z"/>
	<path fill="#EFD0C3" d="M1321.6,243.4l4.3-6.8l-6.8,4.3c-1.2,0.8-2.8,0.8-4.1,0l-6.8-4.3l4.3,6.8c0.8,1.2,0.8,2.8,0,4.1l-4.3,6.8
		l6.8-4.3c1.2-0.8,2.8-0.8,4.1,0l6.8,4.3l-4.3-6.8C1320.8,246.2,1320.8,244.7,1321.6,243.4z"/>
	<path fill="#EFD0C3" d="M1359.7,395.9l4.3-6.8l-6.8,4.3c-1.2,0.8-2.8,0.8-4.1,0l-6.8-4.3l4.3,6.8c0.8,1.2,0.8,2.8,0,4.1l-4.3,6.8
		l6.8-4.3c1.2-0.8,2.8-0.8,4.1,0l6.8,4.3l-4.3-6.8C1358.9,398.7,1358.9,397.1,1359.7,395.9z"/>
	<path fill="#EFD0C3" d="M97.2,645.7l4.3-6.8l-6.8,4.3c-1.2,0.8-2.8,0.8-4.1,0l-6.8-4.3l4.3,6.8c0.8,1.2,0.8,2.8,0,4.1l-4.3,6.8
		l6.8-4.3c1.2-0.8,2.8-0.8,4.1,0l6.8,4.3l-4.3-6.8C96.4,648.5,96.4,646.9,97.2,645.7z"/>
	<path fill="#EFD0C3" d="M1312.8,46.3l4.3-6.8l-6.8,4.3c-1.2,0.8-2.8,0.8-4.1,0l-6.8-4.3l4.3,6.8c0.8,1.2,0.8,2.8,0,4.1l-4.3,6.8
		l6.8-4.3c1.2-0.8,2.8-0.8,4.1,0l6.8,4.3l-4.3-6.8C1312,49.1,1312,47.5,1312.8,46.3z"/>
	<path fill="#EFD0C3" d="M442.5,541.1l4.3-6.8l-6.8,4.3c-1.2,0.8-2.8,0.8-4.1,0l-6.8-4.3l4.3,6.8c0.8,1.2,0.8,2.8,0,4.1l-4.3,6.8
		l6.8-4.3c1.2-0.8,2.8-0.8,4.1,0l6.8,4.3l-4.3-6.8C441.7,543.9,441.7,542.4,442.5,541.1z"/>
	<path fill="#EFD0C3" d="M1128.6,586.6l4.3-6.8l-6.8,4.3c-1.2,0.8-2.8,0.8-4.1,0l-6.8-4.3l4.3,6.8c0.8,1.2,0.8,2.8,0,4.1l-4.3,6.8
		l6.8-4.3c1.2-0.8,2.8-0.8,4.1,0l6.8,4.3l-4.3-6.8C1127.8,589.4,1127.8,587.8,1128.6,586.6z"/>
	<path fill="#EFD0C3" d="M301,298.2l7.2-11.4l-11.4,7.2c-2.1,1.3-4.7,1.3-6.8,0l-11.4-7.2l7.2,11.4c1.3,2.1,1.3,4.7,0,6.8l-7.2,11.4
		l11.4-7.2c2.1-1.3,4.7-1.3,6.8,0l11.4,7.2l-7.2-11.4C299.7,302.9,299.7,300.2,301,298.2z"/>
	<path fill="#EFD0C3" d="M364.7,47.7l7.2-11.4l-11.4,7.2c-2.1,1.3-4.7,1.3-6.8,0l-11.4-7.2l7.2,11.4c1.3,2.1,1.3,4.7,0,6.8
		l-7.2,11.4l11.4-7.2c2.1-1.3,4.7-1.3,6.8,0l11.4,7.2l-7.2-11.4C363.4,52.4,363.4,49.7,364.7,47.7z"/>
	<path fill="#EFD0C3" d="M977.6,69.8l4.4-7l-7,4.4c-1.3,0.8-2.9,0.8-4.2,0l-7-4.4l4.4,7c0.8,1.3,0.8,2.9,0,4.2l-4.4,7l7-4.4
		c1.3-0.8,2.9-0.8,4.2,0l7,4.4l-4.4-7C976.8,72.7,976.8,71.1,977.6,69.8z"/>
	<path fill="#EFD0C3" d="M1329.1,92.4l2.8-4.4l-4.4,2.8c-0.8,0.5-1.8,0.5-2.6,0l-4.4-2.8l2.8,4.4c0.5,0.8,0.5,1.8,0,2.6l-2.8,4.4
		l4.4-2.8c0.8-0.5,1.8-0.5,2.6,0l4.4,2.8l-2.8-4.4C1328.6,94.2,1328.6,93.2,1329.1,92.4z"/>
	<path fill="#EFD0C3" d="M1176.9,100.8l4.4-7l-7,4.4c-1.3,0.8-2.9,0.8-4.2,0l-7-4.4l4.4,7c0.8,1.3,0.8,2.9,0,4.2l-4.4,7l7-4.4
		c1.3-0.8,2.9-0.8,4.2,0l7,4.4l-4.4-7C1176.1,103.7,1176.1,102.1,1176.9,100.8z"/>
	<path fill="#EFD0C3" d="M1135.2,263.9l3.6-5.7l-5.7,3.6c-1,0.7-2.4,0.7-3.4,0l-5.7-3.6l3.6,5.7c0.7,1,0.7,2.4,0,3.4l-3.6,5.7
		l5.7-3.6c1-0.7,2.4-0.7,3.4,0l5.7,3.6l-3.6-5.7C1134.6,266.2,1134.6,264.9,1135.2,263.9z"/>
	<path fill="#EFD0C3" d="M394.2,438.3l7.2-11.4l-11.4,7.2c-2.1,1.3-4.7,1.3-6.8,0l-11.4-7.2l7.2,11.4c1.3,2.1,1.3,4.7,0,6.8
		l-7.2,11.4l11.4-7.2c2.1-1.3,4.7-1.3,6.8,0l11.4,7.2l-7.2-11.4C392.9,443,392.9,440.3,394.2,438.3z"/>
	<path fill="#EFD0C3" d="M548.1,30.5l5.7-9.1l-9.1,5.7c-1.6,1-3.7,1-5.4,0l-9.1-5.7l5.7,9.1c1,1.6,1,3.7,0,5.4l-5.7,9.1l9.1-5.7
		c1.6-1,3.7-1,5.4,0l9.1,5.7l-5.7-9.1C547.1,34.2,547.1,32.1,548.1,30.5z"/>
	<path fill="#EFD0C3" d="M973.5,143.5l2.8-4.4l-4.4,2.8c-0.8,0.5-1.8,0.5-2.6,0l-4.4-2.8l2.8,4.4c0.5,0.8,0.5,1.8,0,2.6l-2.8,4.4
		l4.4-2.8c0.8-0.5,1.8-0.5,2.6,0l4.4,2.8l-2.8-4.4C973,145.3,973,144.3,973.5,143.5z"/>
	<path fill="#EFD0C3" d="M1047.2,220l4.4-7l-7,4.4c-1.3,0.8-2.9,0.8-4.2,0l-7-4.4l4.4,7c0.8,1.3,0.8,2.9,0,4.2l-4.4,7l7-4.4
		c1.3-0.8,2.9-0.8,4.2,0l7,4.4l-4.4-7C1046.4,222.9,1046.4,221.2,1047.2,220z"/>
	<path fill="#EFD0C3" d="M969.1,576.4l7.2-11.4l-11.4,7.2c-2.1,1.3-4.7,1.3-6.8,0l-11.4-7.2l7.2,11.4c1.3,2.1,1.3,4.7,0,6.8
		l-7.2,11.4l11.4-7.2c2.1-1.3,4.7-1.3,6.8,0l11.4,7.2l-7.2-11.4C967.8,581.1,967.8,578.4,969.1,576.4z"/>
	<path fill="#EFD0C3" d="M145.9,394.5l7.2-11.4l-11.4,7.2c-2.1,1.3-4.7,1.3-6.8,0l-11.4-7.2l7.2,11.4c1.3,2.1,1.3,4.7,0,6.8
		l-7.2,11.4l11.4-7.2c2.1-1.3,4.7-1.3,6.8,0l11.4,7.2l-7.2-11.4C144.5,399.2,144.5,396.6,145.9,394.5z"/>
	<path fill="#EFD0C3" d="M1099.9,383.1l7.2-11.4l-11.4,7.2c-2.1,1.3-4.7,1.3-6.8,0l-11.4-7.2l7.2,11.4c1.3,2.1,1.3,4.7,0,6.8
		l-7.2,11.4l11.4-7.2c2.1-1.3,4.7-1.3,6.8,0l11.4,7.2l-7.2-11.4C1098.6,387.8,1098.6,385.2,1099.9,383.1z"/>
	<path fill="#EFD0C3" d="M427.3,89.9l8.9-2.8l-9.3-1.3c-1.7-0.2-3.1-1.4-3.6-3l-2.8-8.9l-1.3,9.3c-0.2,1.7-1.4,3.1-3,3.6l-8.9,2.8
		l9.3,1.3c1.7,0.2,3.1,1.4,3.6,3l2.8,8.9l1.3-9.3C424.5,91.8,425.7,90.4,427.3,89.9z"/>
	<path fill="#EFD0C3" d="M923.2,49.9l8.9-2.8l-9.3-1.3c-1.7-0.2-3.1-1.4-3.6-3l-2.8-8.9l-1.3,9.3c-0.2,1.7-1.4,3.1-3,3.6l-8.9,2.8
		l9.3,1.3c1.7,0.2,3.1,1.4,3.6,3l2.8,8.9l1.3-9.3C920.4,51.8,921.6,50.4,923.2,49.9z"/>
	<path fill="#EFD0C3" d="M313.7,385l8.9-2.8l-9.3-1.3c-1.7-0.2-3.1-1.4-3.6-3L307,369l-1.3,9.3c-0.2,1.7-1.4,3.1-3,3.6l-8.9,2.8
		l9.3,1.3c1.7,0.2,3.1,1.4,3.6,3l2.8,8.9l1.3-9.3C310.9,387,312.1,385.6,313.7,385z"/>
	<g>
		<circle fill="#E8A04D" cx="1190.8" cy="775.6" r="69"/>
		<g>
			<g>
				<g>
					<path fill="#F2BD7E" d="M1194.4,829.8c1.7-0.3,3.3-0.9,4.8-1.7c-3.5-0.6-7,0.8-10.5,1c-1.3,0.1-2.6,0-3.9-0.1
						c-4.6-0.3-9.2-0.5-13.7-0.4c-4.9,0.1-9.8,0.4-14.7,0.5c-3.1,0.1-6.2,0-9.3-0.2c11.9,9.8,27.2,15.7,43.8,15.7
						c14.1,0,27.2-4.2,38.1-11.5c-1.3,0.8-5.3,0.4-6.8,0.5c-2.3,0.1-4.5,0.3-6.8,0.4c-4.4,0.2-8.6,1.4-13,1.5c-1.3,0-2.7,0-4,0.1
						c-4.3,0.3-8.3,2.3-12.6,2c-3.9-0.2-7.4-2.2-11.2-3c-0.8-0.2-1.5-0.3-2.3-0.4c-2.5-0.4-5-0.7-7.5-1.1c-0.1-0.7,0.5-1.3,1.1-1.5
						c0.6-0.2,1.3-0.2,2-0.2c6.4,0.3,12.7-1.6,19.1-1.5c1.9,0,3.8,0.2,5.7,0.1C1193.2,830,1193.8,829.9,1194.4,829.8z"/>
				</g>
				<g>
					<path fill="#F2BD7E" d="M1182.5,724.4c1.6,0.3,3.1,0.7,4.7,1.5c-4.9,1.1-10.1-0.3-15,0.8c-2.1,0.4-4,1.3-6.1,1.6
						c-1.5,0.2-3,0.1-4.5,0.1c-2,0-3.9,0.2-5.8,0.6c-0.9,0.2-1.8,0.4-2.5,1c-0.7,0.6-1.1,1.6-0.8,2.5c3.8,0.8,7.7,0.7,11.6,0.6
						c5.3-0.2,10.6-0.3,15.9-0.5c1.9-0.1,3.8-0.1,5.7,0.2c3.3,0.6,6.4,2.3,9.8,2.6c1.3,0.1,2.6,0,3.9,0.1c4.6,0.2,9.2,2.1,13.8,1.5
						c-1.6-1-3.4-1.4-5.2-1.3c-0.8,0-1.5,0.2-2.3,0c-0.8-0.2-1.5-0.7-1.6-1.5c-0.1-1.2,10.1-0.1,11.1,0.1c4.2,0.8,8.3,1.6,12.4,2.6
						c8.2,1.9,16.4,4.2,24.4,6.8c-1.6-3.1-3.4-6-5.4-8.7c-0.6-0.9-3.4-1.5-4.4-1.9c-1.5-0.6-3-1.2-4.5-1.7c-3-1.1-6.1-2-9.2-2.9
						c-5.9-1.5-12.5-1.5-18.1-4.1c-0.8-0.4-1.6-0.8-2.4-1.2c-2.3-1-4.8-1.4-7.3-1.2c-0.6,0.1-1.2,0.2-1.7,0
						c-0.6-0.1-1.1-0.5-1.2-1.1c-0.2-0.9,0.8-1.6,1.8-1.8c1.1-0.3,2.2-0.3,3.4-0.3c2.4,0,4.7,0,7.1,0c0.6,0,1.3,0,1.9,0.1
						c1.9,0.4,3.6,2.2,5.4,1.5c0.1-1.4-1.4-2.4-2.7-2.9c-4.1-1.4-8-0.8-12.2-1.1c-3.9-0.2-7.9,0.1-11.8,0.2c-3,0.1-5.8,0.8-8.8,0.9
						c-3,0.2-6,0-8.9,0.7c-1.6,0.4-3.6,0.9-4.8-0.2c-0.4-1,0.8-1.8,1.8-2.2c2.6-0.9,5.4-1.2,8.1-0.9c1.6,0.1,3.5,0.4,4.6-0.8
						c0.2-0.2,0.4-0.5,0.7-0.7c0.3-0.1,0.6-0.1,0.9-0.2c2.3,0,4.7,0,7,0c0.1-0.4,0-0.9-0.1-1.3c-4,0.1-8,0.2-12.1,0.3
						c-2.5,0.1-5,0.1-7.3,0.8c-5.2,1.4-10.4,2-15.8,3c-5.9,3.5-11.3,7.9-15.9,12.9c0.8-0.9,4.6-1.2,5.8-1.5c2-0.5,4.1-1,6.2-1.4
						c4.1-0.8,8.3-1.4,12.4-1.8c4-0.4,8.2-0.7,12.3-0.5C1178.6,724,1180.6,724.1,1182.5,724.4z"/>
				</g>
				<g>
					<path fill="#F2BD7E" d="M1228.2,753c-5.8,1.5-12.9,3.8-16.9-0.6c-1.4-1.5-2.1-3.5-3.6-4.8c-3.5-3-8.7-0.9-13,0.6
						c-4.5,1.6-9.3,2.4-14.1,2.9c-4.3,0.4-8.8,0.1-13,1.3c-4.4,1.2-9.9,0.5-14.4,0.4c-5-0.1-10.1-0.3-15.1-0.6
						c-0.4,0-0.9-0.1-1.3-0.3c-0.4-0.3-0.6-0.8-0.3-1.2c0.2-0.2,0.5-0.3,0.8-0.4c9.1-2.4,18.5-3.4,27.9-3c0.4-0.3,0.3-1.1-0.1-1.4
						s-1-0.4-1.5-0.5c-6-0.7-12.1-1.1-18.2-1.4c-2.7-0.1-5.6-0.4-8.3-0.1c-1,0.1-7.6,0-7.9,0.7c-3.6,7.2-6,15.1-6.9,23.4
						c4-1.1,8.2-1.6,12.4-1.4c5,0.3,9.9,1.7,14.8,1.8c15.9,0.3,31.5-12.3,46.5-7c2.7,0.9,5.1,2.4,7.8,3.4
						c10.7,3.8,22.2-1.2,33.4-3.1c7-1.2,14.1-1.2,21.2-0.4c-0.6-2.7-1.3-5.4-2.2-8C1246.9,751.1,1237.5,750.6,1228.2,753z"/>
				</g>
				<g>
					<path fill="#F2BD7E" d="M1219.7,805.6c-4.9-0.4-10.2-0.8-14.5,1.7c-2.1,1.2-3.8,3.1-5.9,4.3c-2.5,2.5-7.6,2-10.8,2.2
						c-3.7,0.2-7.4,0.1-11.1-0.1c-2.1-0.1-4.2-0.2-6.1-1.1c-0.4-1,0.8-1.9,1.9-2.3c7.2-2.3,15.4-0.5,22.5-3.2c0.5-0.2,1-0.4,1.4-0.9
						s0.3-1.2-0.1-1.5c-3.8,1.1-7.8,1.7-11.7,1.8c-3.6,0.1-7.1-0.9-10.7-1.5c-4.5-0.7-9-1.1-13.5-1.3c-4.5-0.2-9.1-0.3-13.6,0.1
						c-4.1,0.3-8.1,0.2-12.3,0c-1.1-0.1-2.3-0.1-3.2,0.5c-0.4,0.3-0.8,0.9-0.5,1.3c0.2,0.2,0.5,0.3,0.7,0.4
						c7.5,1.6,15.2,0.5,22.8,1.3c-1.1,1.3-3.1,1.4-4.8,1.4c-1.9,0-3.8,0-5.8,0c-0.4,0-0.9,0.1-0.9,0.5c0,0.3,0.3,0.4,0.5,0.6
						c5.4,2.5,12.5,2.7,18.4,1.9c1.8,1.1-1.3,3.1-3.4,2.8c-9.5-1.5-19-3.1-28.5-4.6c2.5,4.3,5.4,8.3,8.6,12c24.8,2.3,50,1.3,74.5-3
						c5.4-0.9,10.7-2,16.2-2.6c5.7-0.6,11.5-0.7,17.2-1c1.5-2.2,2.9-4.4,4.2-6.8C1240.9,807.5,1230.3,806.5,1219.7,805.6z"/>
				</g>
				<g>
					<path fill="#F2BD7E" d="M1228.2,779.6c-2.7,1-4.9,2.9-7.3,4.5c-13.5,8.9-31,7.7-47,6.2c7.7-4.9,17-7.3,26.1-6.7
						c3,0.2,6,0.7,8.9,0c2.9-0.7,5.7-3,5.7-6c-12.1,1.3-24.2,2.5-36.3,3.8c-3.9,0.4-7.8,0.8-11.5,2.2c-5.6,2.1-10.6,6.3-16.6,6.5
						c-4.4,0.1-8.5-2-12.6-3.6c-5-2-10.2-3.5-15.5-4.3c0.6,6,1.9,11.7,3.9,17.1c6.7,0.2,13.6,0.7,20-0.4c4.7-0.8,9.4-2.4,14.2-2.5
						c3.6-0.1,7.2,0.8,10.8,1.5c13.1,2.4,26.6,2.1,39.5-0.7c3.1-0.7,6.2-1.5,9-2.8c2.5-1.1,4.8-2.6,7.4-3.6
						c9.8-3.9,20.3-0.6,30.9,1.4c0.4-1.6,0.7-3.1,1-4.7c-1.2-0.3-2.3-0.7-3.5-1.1C1246.4,783,1237.1,776.2,1228.2,779.6z"/>
				</g>
			</g>
		</g>
	</g>
	<path fill="#F6F3C8" d="M1313.6,726.7c-3.8-9.5-32.3-7.6-71.3,3c1.2,1.4,2.4,2.8,3.6,4.3c26.8-6.2,45.6-6.6,48.4,0.4
		c4.7,11.8-37.6,39.7-94.5,62.5c-56.9,22.8-106.9,31.7-111.6,19.9c-2.8-6.9,10.8-19.5,34.1-33.3c-0.2-1.9-0.4-3.7-0.4-5.6
		c-35.2,19.1-56.8,37.3-53,46.7c5.6,14,64.9,3.4,132.5-23.7C1268.9,773.9,1319.2,740.6,1313.6,726.7z"/>
	<g>
		<g>
			<g>
				
					<rect x="1141.4" y="369.8" transform="matrix(0.6237 -0.7817 0.7817 0.6237 129.0063 1038.3235)" fill="#4A5164" width="3" height="30.8"/>
				
					<rect x="1134.7" y="378.2" transform="matrix(0.2918 -0.9565 0.9565 0.2918 428.1003 1365.4668)" fill="#4A5164" width="3" height="30.8"/>
				
					<rect x="1148.2" y="361.3" transform="matrix(-0.8678 0.4969 -0.4969 -0.8678 2334.5569 132.376)" fill="#4A5164" width="3" height="30.8"/>
				<g>
					
						<rect x="1076.2" y="295.1" transform="matrix(0.6237 -0.7817 0.7817 0.6237 140.5289 987.9335)" fill="#B3B4B5" width="40.2" height="105.7"/>
					
						<rect x="1044.7" y="325" transform="matrix(0.6237 -0.7817 0.7817 0.6237 138.8167 944.289)" fill="#2C4D63" width="11" height="5.8"/>
					
						<rect x="1052.9" y="314.8" transform="matrix(0.6237 -0.7817 0.7817 0.6237 149.928 946.8298)" fill="#2C4D63" width="11" height="5.8"/>
					
						<rect x="1061.1" y="304.5" transform="matrix(0.6237 -0.7817 0.7817 0.6237 161.0393 949.3705)" fill="#2C4D63" width="11" height="5.8"/>
					
						<rect x="1051" y="330.1" transform="matrix(0.6237 -0.7817 0.7817 0.6237 137.2612 951.0914)" fill="#2C4D63" width="11" height="5.8"/>
					
						<rect x="1059.2" y="319.8" transform="matrix(0.6237 -0.7817 0.7817 0.6237 148.3725 953.6322)" fill="#2C4D63" width="11" height="5.8"/>
					
						<rect x="1067.4" y="309.5" transform="matrix(0.6237 -0.7817 0.7817 0.6237 159.4838 956.173)" fill="#2C4D63" width="11" height="5.8"/>
					
						<rect x="1057.3" y="335.1" transform="matrix(0.6237 -0.7817 0.7817 0.6237 135.7057 957.8937)" fill="#2C4D63" width="11" height="5.8"/>
					
						<rect x="1065.4" y="324.8" transform="matrix(0.6237 -0.7817 0.7817 0.6237 146.817 960.4345)" fill="#2C4D63" width="11" height="5.8"/>
					
						<rect x="1073.6" y="314.5" transform="matrix(0.6237 -0.7817 0.7817 0.6237 157.9283 962.9753)" fill="#2C4D63" width="11" height="5.8"/>
					
						<rect x="1063.5" y="340.1" transform="matrix(0.6237 -0.7817 0.7817 0.6237 134.1502 964.6961)" fill="#2C4D63" width="11" height="5.8"/>
					
						<rect x="1071.7" y="329.8" transform="matrix(0.6237 -0.7817 0.7817 0.6237 145.2615 967.2369)" fill="#2C4D63" width="11" height="5.8"/>
					
						<rect x="1079.9" y="319.6" transform="matrix(0.6237 -0.7817 0.7817 0.6237 156.3728 969.7776)" fill="#2C4D63" width="11" height="5.8"/>
					
						<rect x="1069.8" y="345.1" transform="matrix(0.6237 -0.7817 0.7817 0.6237 132.5947 971.4985)" fill="#2C4D63" width="11" height="5.8"/>
					
						<rect x="1078" y="334.8" transform="matrix(0.6237 -0.7817 0.7817 0.6237 143.706 974.0393)" fill="#2C4D63" width="11" height="5.8"/>
					
						<rect x="1086.2" y="324.6" transform="matrix(0.6237 -0.7817 0.7817 0.6237 154.8174 976.5801)" fill="#2C4D63" width="11" height="5.8"/>
					
						<rect x="1076.1" y="350.1" transform="matrix(0.6237 -0.7817 0.7817 0.6237 131.0392 978.3009)" fill="#2C4D63" width="11" height="5.8"/>
					
						<rect x="1084.3" y="339.9" transform="matrix(0.6237 -0.7817 0.7817 0.6237 142.1506 980.8417)" fill="#2C4D63" width="11" height="5.8"/>
					
						<rect x="1092.5" y="329.6" transform="matrix(0.6237 -0.7817 0.7817 0.6237 153.2619 983.3825)" fill="#2C4D63" width="11" height="5.8"/>
					
						<rect x="1082.4" y="355.1" transform="matrix(0.6237 -0.7817 0.7817 0.6237 129.4837 985.1033)" fill="#2C4D63" width="11" height="5.8"/>
					
						<rect x="1090.6" y="344.9" transform="matrix(0.6237 -0.7817 0.7817 0.6237 140.5951 987.6441)" fill="#2C4D63" width="11" height="5.8"/>
					
						<rect x="1098.8" y="334.6" transform="matrix(0.6237 -0.7817 0.7817 0.6237 151.7064 990.1849)" fill="#2C4D63" width="11" height="5.8"/>
					
						<rect x="1088.7" y="360.2" transform="matrix(0.6237 -0.7817 0.7817 0.6237 127.9283 991.9057)" fill="#2C4D63" width="11" height="5.8"/>
					
						<rect x="1096.9" y="349.9" transform="matrix(0.6237 -0.7817 0.7817 0.6237 139.0396 994.4465)" fill="#2C4D63" width="11" height="5.8"/>
					
						<rect x="1105.1" y="339.6" transform="matrix(0.6237 -0.7817 0.7817 0.6237 150.1509 996.9872)" fill="#2C4D63" width="11" height="5.8"/>
					
						<rect x="1095" y="365.2" transform="matrix(0.6237 -0.7817 0.7817 0.6237 126.3728 998.708)" fill="#2C4D63" width="11" height="5.8"/>
					
						<rect x="1103.2" y="354.9" transform="matrix(0.6237 -0.7817 0.7817 0.6237 137.4841 1001.2489)" fill="#2C4D63" width="11" height="5.8"/>
					
						<rect x="1111.4" y="344.6" transform="matrix(0.6237 -0.7817 0.7817 0.6237 148.5954 1003.7897)" fill="#2C4D63" width="11" height="5.8"/>
					
						<rect x="1101.3" y="370.2" transform="matrix(0.6237 -0.7817 0.7817 0.6237 124.8173 1005.5104)" fill="#2C4D63" width="11" height="5.8"/>
					
						<rect x="1109.5" y="359.9" transform="matrix(0.6237 -0.7817 0.7817 0.6237 135.9286 1008.0512)" fill="#2C4D63" width="11" height="5.8"/>
					
						<rect x="1117.7" y="349.7" transform="matrix(0.6237 -0.7817 0.7817 0.6237 147.0399 1010.592)" fill="#2C4D63" width="11" height="5.8"/>
					
						<rect x="1107.6" y="375.2" transform="matrix(0.6237 -0.7817 0.7817 0.6237 123.2618 1012.3128)" fill="#2C4D63" width="11" height="5.8"/>
					
						<rect x="1115.7" y="364.9" transform="matrix(0.6237 -0.7817 0.7817 0.6237 134.3731 1014.8536)" fill="#2C4D63" width="11" height="5.8"/>
					
						<rect x="1123.9" y="354.7" transform="matrix(0.6237 -0.7817 0.7817 0.6237 145.4844 1017.3944)" fill="#2C4D63" width="11" height="5.8"/>
					
						<rect x="1113.8" y="380.2" transform="matrix(0.6237 -0.7817 0.7817 0.6237 121.7063 1019.1152)" fill="#2C4D63" width="11" height="5.8"/>
					
						<rect x="1122" y="370" transform="matrix(0.6237 -0.7817 0.7817 0.6237 132.8176 1021.656)" fill="#2C4D63" width="11" height="5.8"/>
					
						<rect x="1130.2" y="359.7" transform="matrix(0.6237 -0.7817 0.7817 0.6237 143.929 1024.1968)" fill="#2C4D63" width="11" height="5.8"/>
					
						<rect x="1120.1" y="385.2" transform="matrix(0.6237 -0.7817 0.7817 0.6237 120.1508 1025.9176)" fill="#2C4D63" width="11" height="5.8"/>
					
						<rect x="1128.3" y="375" transform="matrix(0.6237 -0.7817 0.7817 0.6237 131.2622 1028.4584)" fill="#2C4D63" width="11" height="5.8"/>
					
						<rect x="1136.5" y="364.7" transform="matrix(0.6237 -0.7817 0.7817 0.6237 142.3735 1030.9991)" fill="#2C4D63" width="11" height="5.8"/>
				</g>
			</g>
			<g>
				
					<rect x="1181.9" y="402.1" transform="matrix(0.6237 -0.7817 0.7817 0.6237 118.994 1082.1091)" fill="#4A5164" width="3" height="30.8"/>
				
					<rect x="1175.1" y="410.5" transform="matrix(0.8678 -0.4969 0.4969 0.8678 -56.0977 640.9701)" fill="#4A5164" width="3" height="30.8"/>
				
					<rect x="1188.6" y="393.6" transform="matrix(-0.2918 0.9565 -0.9565 -0.2918 1928.6794 -609.9526)" fill="#4A5164" width="3" height="30.8"/>
				<g>
					
						<rect x="1209.9" y="401.8" transform="matrix(0.6237 -0.7817 0.7817 0.6237 107.4714 1132.4991)" fill="#B3B4B5" width="40.2" height="105.7"/>
					
						<rect x="1254.3" y="492.3" transform="matrix(0.6237 -0.7817 0.7817 0.6237 86.961 1171.062)" fill="#2C4D63" width="11" height="5.8"/>
					
						<rect x="1262.5" y="482" transform="matrix(0.6237 -0.7817 0.7817 0.6237 98.0723 1173.6028)" fill="#2C4D63" width="11" height="5.8"/>
					
						<rect x="1270.7" y="471.7" transform="matrix(0.6237 -0.7817 0.7817 0.6237 109.1837 1176.1436)" fill="#2C4D63" width="11" height="5.8"/>
					
						<rect x="1248" y="487.3" transform="matrix(0.6237 -0.7817 0.7817 0.6237 88.5165 1164.2596)" fill="#2C4D63" width="11" height="5.8"/>
					
						<rect x="1256.2" y="477" transform="matrix(0.6237 -0.7817 0.7817 0.6237 99.6278 1166.8004)" fill="#2C4D63" width="11" height="5.8"/>
					
						<rect x="1264.4" y="466.7" transform="matrix(0.6237 -0.7817 0.7817 0.6237 110.7391 1169.3412)" fill="#2C4D63" width="11" height="5.8"/>
					
						<rect x="1241.7" y="482.3" transform="matrix(0.6237 -0.7817 0.7817 0.6237 90.072 1157.4573)" fill="#2C4D63" width="11" height="5.8"/>
					
						<rect x="1249.9" y="472" transform="matrix(0.6237 -0.7817 0.7817 0.6237 101.1833 1159.998)" fill="#2C4D63" width="11" height="5.8"/>
					
						<rect x="1258.1" y="461.7" transform="matrix(0.6237 -0.7817 0.7817 0.6237 112.2946 1162.5388)" fill="#2C4D63" width="11" height="5.8"/>
					
						<rect x="1235.4" y="477.2" transform="matrix(0.6237 -0.7817 0.7817 0.6237 91.6274 1150.6548)" fill="#2C4D63" width="11" height="5.8"/>
					
						<rect x="1243.6" y="467" transform="matrix(0.6237 -0.7817 0.7817 0.6237 102.7388 1153.1957)" fill="#2C4D63" width="11" height="5.8"/>
					
						<rect x="1251.8" y="456.7" transform="matrix(0.6237 -0.7817 0.7817 0.6237 113.8501 1155.7365)" fill="#2C4D63" width="11" height="5.8"/>
					
						<rect x="1229.1" y="472.2" transform="matrix(0.6237 -0.7817 0.7817 0.6237 93.1829 1143.8524)" fill="#2C4D63" width="11" height="5.8"/>
					
						<rect x="1237.3" y="461.9" transform="matrix(0.6237 -0.7817 0.7817 0.6237 104.2943 1146.3932)" fill="#2C4D63" width="11" height="5.8"/>
					
						<rect x="1245.5" y="451.7" transform="matrix(0.6237 -0.7817 0.7817 0.6237 115.4056 1148.9341)" fill="#2C4D63" width="11" height="5.8"/>
					
						<rect x="1222.8" y="467.2" transform="matrix(0.6237 -0.7817 0.7817 0.6237 94.7384 1137.0502)" fill="#2C4D63" width="11" height="5.8"/>
					
						<rect x="1231" y="456.9" transform="matrix(0.6237 -0.7817 0.7817 0.6237 105.8498 1139.5909)" fill="#2C4D63" width="11" height="5.8"/>
					
						<rect x="1239.2" y="446.7" transform="matrix(0.6237 -0.7817 0.7817 0.6237 116.9611 1142.1317)" fill="#2C4D63" width="11" height="5.8"/>
					
						<rect x="1216.6" y="462.2" transform="matrix(0.6237 -0.7817 0.7817 0.6237 96.2939 1130.2477)" fill="#2C4D63" width="11" height="5.8"/>
					
						<rect x="1224.8" y="451.9" transform="matrix(0.6237 -0.7817 0.7817 0.6237 107.4052 1132.7886)" fill="#2C4D63" width="11" height="5.8"/>
					
						<rect x="1232.9" y="441.6" transform="matrix(0.6237 -0.7817 0.7817 0.6237 118.5166 1135.3293)" fill="#2C4D63" width="11" height="5.8"/>
					
						<rect x="1210.3" y="457.2" transform="matrix(0.6237 -0.7817 0.7817 0.6237 97.8494 1123.4453)" fill="#2C4D63" width="11" height="5.8"/>
					
						<rect x="1218.5" y="446.9" transform="matrix(0.6237 -0.7817 0.7817 0.6237 108.9607 1125.9861)" fill="#2C4D63" width="11" height="5.8"/>
					
						<rect x="1226.7" y="436.6" transform="matrix(0.6237 -0.7817 0.7817 0.6237 120.072 1128.5269)" fill="#2C4D63" width="11" height="5.8"/>
					
						<rect x="1204" y="452.2" transform="matrix(0.6237 -0.7817 0.7817 0.6237 99.4049 1116.6429)" fill="#2C4D63" width="11" height="5.8"/>
					
						<rect x="1212.2" y="441.9" transform="matrix(0.6237 -0.7817 0.7817 0.6237 110.5162 1119.1837)" fill="#2C4D63" width="11" height="5.8"/>
					
						<rect x="1220.4" y="431.6" transform="matrix(0.6237 -0.7817 0.7817 0.6237 121.6275 1121.7245)" fill="#2C4D63" width="11" height="5.8"/>
					
						<rect x="1197.7" y="447.1" transform="matrix(0.6237 -0.7817 0.7817 0.6237 100.9603 1109.8406)" fill="#2C4D63" width="11" height="5.8"/>
					
						<rect x="1205.9" y="436.9" transform="matrix(0.6237 -0.7817 0.7817 0.6237 112.0717 1112.3813)" fill="#2C4D63" width="11" height="5.8"/>
					
						<rect x="1214.1" y="426.6" transform="matrix(0.6237 -0.7817 0.7817 0.6237 123.183 1114.9221)" fill="#2C4D63" width="11" height="5.8"/>
					
						<rect x="1191.4" y="442.1" transform="matrix(0.6237 -0.7817 0.7817 0.6237 102.5158 1103.0381)" fill="#2C4D63" width="11" height="5.8"/>
					
						<rect x="1199.6" y="431.8" transform="matrix(0.6237 -0.7817 0.7817 0.6237 113.6272 1105.579)" fill="#2C4D63" width="11" height="5.8"/>
					
						<rect x="1207.8" y="421.6" transform="matrix(0.6237 -0.7817 0.7817 0.6237 124.7385 1108.1198)" fill="#2C4D63" width="11" height="5.8"/>
					
						<rect x="1185.1" y="437.1" transform="matrix(0.6237 -0.7817 0.7817 0.6237 104.0714 1096.2358)" fill="#2C4D63" width="11" height="5.8"/>
					
						<rect x="1193.3" y="426.8" transform="matrix(0.6237 -0.7817 0.7817 0.6237 115.1827 1098.7766)" fill="#2C4D63" width="11" height="5.8"/>
					
						<rect x="1201.5" y="416.6" transform="matrix(0.6237 -0.7817 0.7817 0.6237 126.294 1101.3174)" fill="#2C4D63" width="11" height="5.8"/>
					
						<rect x="1178.8" y="432.1" transform="matrix(0.6237 -0.7817 0.7817 0.6237 105.6268 1089.4335)" fill="#2C4D63" width="11" height="5.8"/>
					
						<rect x="1187" y="421.8" transform="matrix(0.6237 -0.7817 0.7817 0.6237 116.7382 1091.9742)" fill="#2C4D63" width="11" height="5.8"/>
					
						<rect x="1195.2" y="411.5" transform="matrix(0.6237 -0.7817 0.7817 0.6237 127.8495 1094.515)" fill="#2C4D63" width="11" height="5.8"/>
				</g>
			</g>
		</g>
		<g>
			<polygon fill="#B3B4B5" points="1175,422.7 1156.4,424.8 1141.8,413.1 1139.7,394.6 1151.4,380 1169.9,377.9 1184.5,389.5 
				1186.6,408.1 			"/>
			<polygon fill="#4A5164" points="1169.4,412.6 1159.6,413.7 1151.9,407.5 1150.8,397.8 1156.9,390.1 1166.7,388.9 1174.4,395.1 
				1175.5,404.9 			"/>
			<polygon fill="#A7A9AA" points="1139.7,394.6 1150.8,397.8 1156.9,390.1 1151.4,380 			"/>
			<polygon fill="#989A9B" points="1166.7,388.9 1169.9,377.9 1184.5,389.5 1174.4,395.1 			"/>
			<polygon fill="#C4C4C5" points="1159.6,413.7 1156.4,424.8 1175,422.7 1169.4,412.6 			"/>
			<polygon fill="#7F8082" points="1175.5,404.9 1186.6,408.1 1184.5,389.5 1174.4,395.1 			"/>
			<polygon fill="#ADAEB0" points="1151.9,407.5 1150.8,397.8 1139.7,394.6 1141.8,413.1 			"/>
		</g>
	</g>
	<g>
		<g>
			<g>
				
					<rect x="252.8" y="154.5" transform="matrix(0.5705 0.8213 -0.8213 0.5705 253.497 -134.0273)" fill="#4A5164" width="4.1" height="41.7"/>
				
					<rect x="244.5" y="142.5" transform="matrix(0.833 0.5533 -0.5533 0.833 131.5541 -109.1313)" fill="#4A5164" width="4.1" height="41.7"/>
				
					<rect x="261.2" y="166.5" transform="matrix(-0.2278 -0.9737 0.9737 -0.2278 140.7644 486.4317)" fill="#4A5164" width="4.1" height="41.7"/>
				<g>
					
						<rect x="293.9" y="57.8" transform="matrix(0.5705 0.8213 -0.8213 0.5705 244.1485 -208.2137)" fill="#B3B4B5" width="54.5" height="143.2"/>
					
						<rect x="357.6" y="73.2" transform="matrix(0.5705 0.8213 -0.8213 0.5705 220.1642 -266.667)" fill="#2C4D63" width="14.9" height="7.9"/>
					
						<rect x="367.8" y="87.8" transform="matrix(0.5705 0.8213 -0.8213 0.5705 236.5228 -268.7284)" fill="#2C4D63" width="14.9" height="7.9"/>
					
						<rect x="377.9" y="102.4" transform="matrix(0.5705 0.8213 -0.8213 0.5705 252.8814 -270.7898)" fill="#2C4D63" width="14.9" height="7.9"/>
					
						<rect x="348.7" y="79.4" transform="matrix(0.5705 0.8213 -0.8213 0.5705 221.4262 -256.6523)" fill="#2C4D63" width="14.9" height="7.9"/>
					
						<rect x="358.8" y="94" transform="matrix(0.5705 0.8213 -0.8213 0.5705 237.7848 -258.7137)" fill="#2C4D63" width="14.9" height="7.9"/>
					
						<rect x="369" y="108.7" transform="matrix(0.5705 0.8213 -0.8213 0.5705 254.1434 -260.7751)" fill="#2C4D63" width="14.9" height="7.9"/>
					
						<rect x="339.7" y="85.6" transform="matrix(0.5705 0.8213 -0.8213 0.5705 222.6882 -246.6375)" fill="#2C4D63" width="14.9" height="7.9"/>
					
						<rect x="349.9" y="100.3" transform="matrix(0.5705 0.8213 -0.8213 0.5705 239.0468 -248.6989)" fill="#2C4D63" width="14.9" height="7.9"/>
					
						<rect x="360" y="114.9" transform="matrix(0.5705 0.8213 -0.8213 0.5705 255.4054 -250.7603)" fill="#2C4D63" width="14.9" height="7.9"/>
					
						<rect x="330.8" y="91.9" transform="matrix(0.5705 0.8213 -0.8213 0.5705 223.9502 -236.6227)" fill="#2C4D63" width="14.9" height="7.9"/>
					
						<rect x="341" y="106.5" transform="matrix(0.5705 0.8213 -0.8213 0.5705 240.3088 -238.6841)" fill="#2C4D63" width="14.9" height="7.9"/>
					
						<rect x="351.1" y="121.1" transform="matrix(0.5705 0.8213 -0.8213 0.5705 256.6674 -240.7455)" fill="#2C4D63" width="14.9" height="7.9"/>
					
						<rect x="321.9" y="98.1" transform="matrix(0.5705 0.8213 -0.8213 0.5705 225.2122 -226.6079)" fill="#2C4D63" width="14.9" height="7.9"/>
					
						<rect x="332" y="112.7" transform="matrix(0.5705 0.8213 -0.8213 0.5705 241.5708 -228.6693)" fill="#2C4D63" width="14.9" height="7.9"/>
					
						<rect x="342.2" y="127.3" transform="matrix(0.5705 0.8213 -0.8213 0.5705 257.9294 -230.7307)" fill="#2C4D63" width="14.9" height="7.9"/>
					
						<rect x="312.9" y="104.3" transform="matrix(0.5705 0.8213 -0.8213 0.5705 226.4742 -216.5932)" fill="#2C4D63" width="14.9" height="7.9"/>
					
						<rect x="323.1" y="118.9" transform="matrix(0.5705 0.8213 -0.8213 0.5705 242.8328 -218.6546)" fill="#2C4D63" width="14.9" height="7.9"/>
					
						<rect x="333.2" y="133.5" transform="matrix(0.5705 0.8213 -0.8213 0.5705 259.1914 -220.716)" fill="#2C4D63" width="14.9" height="7.9"/>
					
						<rect x="304" y="110.5" transform="matrix(0.5705 0.8213 -0.8213 0.5705 227.7362 -206.5784)" fill="#2C4D63" width="14.9" height="7.9"/>
					
						<rect x="314.1" y="125.1" transform="matrix(0.5705 0.8213 -0.8213 0.5705 244.0948 -208.6398)" fill="#2C4D63" width="14.9" height="7.9"/>
					
						<rect x="324.3" y="139.7" transform="matrix(0.5705 0.8213 -0.8213 0.5705 260.4534 -210.7012)" fill="#2C4D63" width="14.9" height="7.9"/>
					
						<rect x="295" y="116.7" transform="matrix(0.5705 0.8213 -0.8213 0.5705 228.9982 -196.5636)" fill="#2C4D63" width="14.9" height="7.9"/>
					
						<rect x="305.2" y="131.3" transform="matrix(0.5705 0.8213 -0.8213 0.5705 245.3568 -198.625)" fill="#2C4D63" width="14.9" height="7.9"/>
					
						<rect x="315.3" y="145.9" transform="matrix(0.5705 0.8213 -0.8213 0.5705 261.7154 -200.6864)" fill="#2C4D63" width="14.9" height="7.9"/>
					
						<rect x="286.1" y="122.9" transform="matrix(0.5705 0.8213 -0.8213 0.5705 230.2602 -186.5489)" fill="#2C4D63" width="14.9" height="7.9"/>
					
						<rect x="296.2" y="137.5" transform="matrix(0.5705 0.8213 -0.8213 0.5705 246.6188 -188.6102)" fill="#2C4D63" width="14.9" height="7.9"/>
					
						<rect x="306.4" y="152.2" transform="matrix(0.5705 0.8213 -0.8213 0.5705 262.9774 -190.6716)" fill="#2C4D63" width="14.9" height="7.9"/>
					
						<rect x="277.1" y="129.1" transform="matrix(0.5705 0.8213 -0.8213 0.5705 231.5222 -176.5341)" fill="#2C4D63" width="14.9" height="7.9"/>
					
						<rect x="287.3" y="143.8" transform="matrix(0.5705 0.8213 -0.8213 0.5705 247.8808 -178.5955)" fill="#2C4D63" width="14.9" height="7.9"/>
					
						<rect x="297.4" y="158.4" transform="matrix(0.5705 0.8213 -0.8213 0.5705 264.2393 -180.6569)" fill="#2C4D63" width="14.9" height="7.9"/>
					
						<rect x="268.2" y="135.4" transform="matrix(0.5705 0.8213 -0.8213 0.5705 232.7842 -166.5193)" fill="#2C4D63" width="14.9" height="7.9"/>
					
						<rect x="278.3" y="150" transform="matrix(0.5705 0.8213 -0.8213 0.5705 249.1428 -168.5807)" fill="#2C4D63" width="14.9" height="7.9"/>
					
						<rect x="288.5" y="164.6" transform="matrix(0.5705 0.8213 -0.8213 0.5705 265.5013 -170.6421)" fill="#2C4D63" width="14.9" height="7.9"/>
					
						<rect x="259.2" y="141.6" transform="matrix(0.5705 0.8213 -0.8213 0.5705 234.0462 -156.5045)" fill="#2C4D63" width="14.9" height="7.9"/>
					
						<rect x="269.4" y="156.2" transform="matrix(0.5705 0.8213 -0.8213 0.5705 250.4048 -158.5659)" fill="#2C4D63" width="14.9" height="7.9"/>
					
						<rect x="279.5" y="170.8" transform="matrix(0.5705 0.8213 -0.8213 0.5705 266.7633 -160.6273)" fill="#2C4D63" width="14.9" height="7.9"/>
					
						<rect x="250.3" y="147.8" transform="matrix(0.5705 0.8213 -0.8213 0.5705 235.3082 -146.4898)" fill="#2C4D63" width="14.9" height="7.9"/>
					
						<rect x="260.4" y="162.4" transform="matrix(0.5705 0.8213 -0.8213 0.5705 251.6668 -148.5511)" fill="#2C4D63" width="14.9" height="7.9"/>
					
						<rect x="270.6" y="177" transform="matrix(0.5705 0.8213 -0.8213 0.5705 268.0254 -150.6126)" fill="#2C4D63" width="14.9" height="7.9"/>
				</g>
			</g>
			<g>
				
					<rect x="195.3" y="194.5" transform="matrix(0.5705 0.8213 -0.8213 0.5705 261.6201 -69.5642)" fill="#4A5164" width="4.1" height="41.7"/>
				
					<rect x="186.9" y="182.5" transform="matrix(0.2278 0.9737 -0.9737 0.2278 343.9101 -26.9848)" fill="#4A5164" width="4.1" height="41.7"/>
				
					<rect x="203.6" y="206.5" transform="matrix(-0.833 -0.5533 0.5533 -0.833 251.1922 530.6234)" fill="#4A5164" width="4.1" height="41.7"/>
				<g>
					
						<rect x="103.8" y="189.8" transform="matrix(0.5705 0.8213 -0.8213 0.5705 270.9686 4.6222)" fill="#B3B4B5" width="54.5" height="143.2"/>
					
						<rect x="59.4" y="280.4" transform="matrix(0.5705 0.8213 -0.8213 0.5705 262.2357 67.1983)" fill="#2C4D63" width="14.9" height="7.9"/>
					
						<rect x="69.6" y="295" transform="matrix(0.5705 0.8213 -0.8213 0.5705 278.5943 65.1369)" fill="#2C4D63" width="14.9" height="7.9"/>
					
						<rect x="79.7" y="309.6" transform="matrix(0.5705 0.8213 -0.8213 0.5705 294.9529 63.0755)" fill="#2C4D63" width="14.9" height="7.9"/>
					
						<rect x="68.4" y="274.2" transform="matrix(0.5705 0.8213 -0.8213 0.5705 260.9737 57.1835)" fill="#2C4D63" width="14.9" height="7.9"/>
					
						<rect x="78.5" y="288.8" transform="matrix(0.5705 0.8213 -0.8213 0.5705 277.3323 55.1221)" fill="#2C4D63" width="14.9" height="7.9"/>
					
						<rect x="88.7" y="303.4" transform="matrix(0.5705 0.8213 -0.8213 0.5705 293.6909 53.0607)" fill="#2C4D63" width="14.9" height="7.9"/>
					
						<rect x="77.3" y="268" transform="matrix(0.5705 0.8213 -0.8213 0.5705 259.7117 47.1688)" fill="#2C4D63" width="14.9" height="7.9"/>
					
						<rect x="87.5" y="282.6" transform="matrix(0.5705 0.8213 -0.8213 0.5705 276.0703 45.1073)" fill="#2C4D63" width="14.9" height="7.9"/>
					
						<rect x="97.6" y="297.2" transform="matrix(0.5705 0.8213 -0.8213 0.5705 292.4289 43.0459)" fill="#2C4D63" width="14.9" height="7.9"/>
					
						<rect x="86.3" y="261.7" transform="matrix(0.5705 0.8213 -0.8213 0.5705 258.4497 37.154)" fill="#2C4D63" width="14.9" height="7.9"/>
					
						<rect x="96.4" y="276.3" transform="matrix(0.5705 0.8213 -0.8213 0.5705 274.8083 35.0926)" fill="#2C4D63" width="14.9" height="7.9"/>
					
						<rect x="106.6" y="291" transform="matrix(0.5705 0.8213 -0.8213 0.5705 291.1669 33.0312)" fill="#2C4D63" width="14.9" height="7.9"/>
					
						<rect x="95.2" y="255.5" transform="matrix(0.5705 0.8213 -0.8213 0.5705 257.1877 27.1392)" fill="#2C4D63" width="14.9" height="7.9"/>
					
						<rect x="105.4" y="270.1" transform="matrix(0.5705 0.8213 -0.8213 0.5705 273.5463 25.0778)" fill="#2C4D63" width="14.9" height="7.9"/>
					
						<rect x="115.5" y="284.7" transform="matrix(0.5705 0.8213 -0.8213 0.5705 289.9049 23.0164)" fill="#2C4D63" width="14.9" height="7.9"/>
					
						<rect x="104.2" y="249.3" transform="matrix(0.5705 0.8213 -0.8213 0.5705 255.9257 17.1244)" fill="#2C4D63" width="14.9" height="7.9"/>
					
						<rect x="114.3" y="263.9" transform="matrix(0.5705 0.8213 -0.8213 0.5705 272.2843 15.063)" fill="#2C4D63" width="14.9" height="7.9"/>
					
						<rect x="124.5" y="278.5" transform="matrix(0.5705 0.8213 -0.8213 0.5705 288.6429 13.0016)" fill="#2C4D63" width="14.9" height="7.9"/>
					
						<rect x="113.1" y="243.1" transform="matrix(0.5705 0.8213 -0.8213 0.5705 254.6637 7.1097)" fill="#2C4D63" width="14.9" height="7.9"/>
					
						<rect x="123.3" y="257.7" transform="matrix(0.5705 0.8213 -0.8213 0.5705 271.0223 5.0483)" fill="#2C4D63" width="14.9" height="7.9"/>
					
						<rect x="133.4" y="272.3" transform="matrix(0.5705 0.8213 -0.8213 0.5705 287.3809 2.9869)" fill="#2C4D63" width="14.9" height="7.9"/>
					
						<rect x="122.1" y="236.9" transform="matrix(0.5705 0.8213 -0.8213 0.5705 253.4017 -2.9051)" fill="#2C4D63" width="14.9" height="7.9"/>
					
						<rect x="132.2" y="251.5" transform="matrix(0.5705 0.8213 -0.8213 0.5705 269.7603 -4.9665)" fill="#2C4D63" width="14.9" height="7.9"/>
					
						<rect x="142.4" y="266.1" transform="matrix(0.5705 0.8213 -0.8213 0.5705 286.1189 -7.0279)" fill="#2C4D63" width="14.9" height="7.9"/>
					
						<rect x="131" y="230.7" transform="matrix(0.5705 0.8213 -0.8213 0.5705 252.1398 -12.9199)" fill="#2C4D63" width="14.9" height="7.9"/>
					
						<rect x="141.1" y="245.3" transform="matrix(0.5705 0.8213 -0.8213 0.5705 268.4983 -14.9813)" fill="#2C4D63" width="14.9" height="7.9"/>
					
						<rect x="151.3" y="259.9" transform="matrix(0.5705 0.8213 -0.8213 0.5705 284.8569 -17.0427)" fill="#2C4D63" width="14.9" height="7.9"/>
					
						<rect x="139.9" y="224.5" transform="matrix(0.5705 0.8213 -0.8213 0.5705 250.8777 -22.9347)" fill="#2C4D63" width="14.9" height="7.9"/>
					
						<rect x="150.1" y="239.1" transform="matrix(0.5705 0.8213 -0.8213 0.5705 267.2364 -24.9961)" fill="#2C4D63" width="14.9" height="7.9"/>
					
						<rect x="160.2" y="253.7" transform="matrix(0.5705 0.8213 -0.8213 0.5705 283.5949 -27.0575)" fill="#2C4D63" width="14.9" height="7.9"/>
					
						<rect x="148.9" y="218.2" transform="matrix(0.5705 0.8213 -0.8213 0.5705 249.6158 -32.9494)" fill="#2C4D63" width="14.9" height="7.9"/>
					
						<rect x="159" y="232.9" transform="matrix(0.5705 0.8213 -0.8213 0.5705 265.9743 -35.0108)" fill="#2C4D63" width="14.9" height="7.9"/>
					
						<rect x="169.2" y="247.5" transform="matrix(0.5705 0.8213 -0.8213 0.5705 282.3329 -37.0722)" fill="#2C4D63" width="14.9" height="7.9"/>
					
						<rect x="157.8" y="212" transform="matrix(0.5705 0.8213 -0.8213 0.5705 248.3538 -42.9642)" fill="#2C4D63" width="14.9" height="7.9"/>
					
						<rect x="168" y="226.6" transform="matrix(0.5705 0.8213 -0.8213 0.5705 264.7124 -45.0256)" fill="#2C4D63" width="14.9" height="7.9"/>
					
						<rect x="178.1" y="241.2" transform="matrix(0.5705 0.8213 -0.8213 0.5705 281.0709 -47.087)" fill="#2C4D63" width="14.9" height="7.9"/>
					
						<rect x="166.8" y="205.8" transform="matrix(0.5705 0.8213 -0.8213 0.5705 247.0918 -52.979)" fill="#2C4D63" width="14.9" height="7.9"/>
					
						<rect x="176.9" y="220.4" transform="matrix(0.5705 0.8213 -0.8213 0.5705 263.4504 -55.0404)" fill="#2C4D63" width="14.9" height="7.9"/>
					
						<rect x="187.1" y="235" transform="matrix(0.5705 0.8213 -0.8213 0.5705 279.809 -57.1018)" fill="#2C4D63" width="14.9" height="7.9"/>
				</g>
			</g>
		</g>
		<g>
			<polygon fill="#B3B4B5" points="193.8,202.4 198.3,177.5 219.1,163.1 244,167.6 258.4,188.3 253.9,213.2 233.1,227.7 
				208.3,223.2 			"/>
			<polygon fill="#4A5164" points="209.1,199.1 211.4,186 222.4,178.3 235.5,180.7 243.1,191.7 240.8,204.8 229.8,212.4 216.7,210 
							"/>
			<polygon fill="#A7A9AA" points="244,167.6 235.5,180.7 243.1,191.7 258.4,188.3 			"/>
			<polygon fill="#989A9B" points="240.8,204.8 253.9,213.2 233.1,227.7 229.8,212.4 			"/>
			<polygon fill="#C4C4C5" points="211.4,186 198.3,177.5 193.8,202.4 209.1,199.1 			"/>
			<polygon fill="#7F8082" points="216.7,210 208.3,223.2 233.1,227.7 229.8,212.4 			"/>
			<polygon fill="#ADAEB0" points="222.4,178.3 235.5,180.7 244,167.6 219.1,163.1 			"/>
		</g>
	</g>
	<g>
		<g>
			<g>
				
					<rect x="244.1" y="203.3" transform="matrix(-0.8213 0.5705 -0.5705 -0.8213 576.1301 267.8374)" fill="#4A5164" width="4.1" height="41.7"/>
				
					<rect x="256.1" y="194.9" transform="matrix(-0.5533 0.833 -0.833 -0.5533 580.7309 120.1787)" fill="#4A5164" width="4.1" height="41.7"/>
				
					<rect x="232" y="211.7" transform="matrix(0.9737 -0.2278 0.2278 0.9737 -46.8188 59.4476)" fill="#4A5164" width="4.1" height="41.7"/>
				<g>
					
						<rect x="264.9" y="218.8" transform="matrix(-0.8213 0.5705 -0.5705 -0.8213 697.7711 362.2524)" fill="#B3B4B5" width="54.5" height="143.2"/>
					
						<rect x="336.9" y="330.4" transform="matrix(-0.8213 0.5705 -0.5705 -0.8213 817.8142 412.4453)" fill="#2C4D63" width="14.9" height="7.9"/>
					
						<rect x="322.3" y="340.5" transform="matrix(-0.8213 0.5705 -0.5705 -0.8213 796.9951 439.2679)" fill="#2C4D63" width="14.9" height="7.9"/>
					
						<rect x="307.7" y="350.7" transform="matrix(-0.8213 0.5705 -0.5705 -0.8213 776.176 466.0906)" fill="#2C4D63" width="14.9" height="7.9"/>
					
						<rect x="330.7" y="321.4" transform="matrix(-0.8213 0.5705 -0.5705 -0.8213 801.3933 399.6998)" fill="#2C4D63" width="14.9" height="7.9"/>
					
						<rect x="316.1" y="331.6" transform="matrix(-0.8213 0.5705 -0.5705 -0.8213 780.5742 426.5224)" fill="#2C4D63" width="14.9" height="7.9"/>
					
						<rect x="301.4" y="341.7" transform="matrix(-0.8213 0.5705 -0.5705 -0.8213 759.755 453.345)" fill="#2C4D63" width="14.9" height="7.9"/>
					
						<rect x="324.5" y="312.5" transform="matrix(-0.8213 0.5705 -0.5705 -0.8213 784.9724 386.9542)" fill="#2C4D63" width="14.9" height="7.9"/>
					
						<rect x="309.8" y="322.6" transform="matrix(-0.8213 0.5705 -0.5705 -0.8213 764.1533 413.7769)" fill="#2C4D63" width="14.9" height="7.9"/>
					
						<rect x="295.2" y="332.8" transform="matrix(-0.8213 0.5705 -0.5705 -0.8213 743.3342 440.5995)" fill="#2C4D63" width="14.9" height="7.9"/>
					
						<rect x="318.2" y="303.5" transform="matrix(-0.8213 0.5705 -0.5705 -0.8213 768.5516 374.2086)" fill="#2C4D63" width="14.9" height="7.9"/>
					
						<rect x="303.6" y="313.7" transform="matrix(-0.8213 0.5705 -0.5705 -0.8213 747.7324 401.0313)" fill="#2C4D63" width="14.9" height="7.9"/>
					
						<rect x="289" y="323.8" transform="matrix(-0.8213 0.5705 -0.5705 -0.8213 726.9133 427.8539)" fill="#2C4D63" width="14.9" height="7.9"/>
					
						<rect x="312" y="294.6" transform="matrix(-0.8213 0.5705 -0.5705 -0.8213 752.1306 361.4631)" fill="#2C4D63" width="14.9" height="7.9"/>
					
						<rect x="297.4" y="304.7" transform="matrix(-0.8213 0.5705 -0.5705 -0.8213 731.3115 388.2858)" fill="#2C4D63" width="14.9" height="7.9"/>
					
						<rect x="282.8" y="314.9" transform="matrix(-0.8213 0.5705 -0.5705 -0.8213 710.4924 415.1084)" fill="#2C4D63" width="14.9" height="7.9"/>
					
						<rect x="305.8" y="285.6" transform="matrix(-0.8213 0.5705 -0.5705 -0.8213 735.7098 348.7176)" fill="#2C4D63" width="14.9" height="7.9"/>
					
						<rect x="291.2" y="295.8" transform="matrix(-0.8213 0.5705 -0.5705 -0.8213 714.8906 375.5402)" fill="#2C4D63" width="14.9" height="7.9"/>
					
						<rect x="276.6" y="305.9" transform="matrix(-0.8213 0.5705 -0.5705 -0.8213 694.0715 402.3629)" fill="#2C4D63" width="14.9" height="7.9"/>
					
						<rect x="299.6" y="276.7" transform="matrix(-0.8213 0.5705 -0.5705 -0.8213 719.2889 335.9721)" fill="#2C4D63" width="14.9" height="7.9"/>
					
						<rect x="285" y="286.8" transform="matrix(-0.8213 0.5705 -0.5705 -0.8213 698.4697 362.7947)" fill="#2C4D63" width="14.9" height="7.9"/>
					
						<rect x="270.4" y="297" transform="matrix(-0.8213 0.5705 -0.5705 -0.8213 677.6506 389.6174)" fill="#2C4D63" width="14.9" height="7.9"/>
					
						<rect x="293.4" y="267.7" transform="matrix(-0.8213 0.5705 -0.5705 -0.8213 702.8679 323.2266)" fill="#2C4D63" width="14.9" height="7.9"/>
					
						<rect x="278.8" y="277.9" transform="matrix(-0.8213 0.5705 -0.5705 -0.8213 682.0488 350.0492)" fill="#2C4D63" width="14.9" height="7.9"/>
					
						<rect x="264.2" y="288" transform="matrix(-0.8213 0.5705 -0.5705 -0.8213 661.2297 376.8718)" fill="#2C4D63" width="14.9" height="7.9"/>
					
						<rect x="287.2" y="258.8" transform="matrix(-0.8213 0.5705 -0.5705 -0.8213 686.4471 310.481)" fill="#2C4D63" width="14.9" height="7.9"/>
					
						<rect x="272.6" y="269" transform="matrix(-0.8213 0.5705 -0.5705 -0.8213 665.6279 337.3036)" fill="#2C4D63" width="14.9" height="7.9"/>
					
						<rect x="257.9" y="279.1" transform="matrix(-0.8213 0.5705 -0.5705 -0.8213 644.8088 364.1263)" fill="#2C4D63" width="14.9" height="7.9"/>
					
						<rect x="281" y="249.9" transform="matrix(-0.8213 0.5705 -0.5705 -0.8213 670.0262 297.7355)" fill="#2C4D63" width="14.9" height="7.9"/>
					
						<rect x="266.3" y="260" transform="matrix(-0.8213 0.5705 -0.5705 -0.8213 649.2071 324.5581)" fill="#2C4D63" width="14.9" height="7.9"/>
					
						<rect x="251.7" y="270.2" transform="matrix(-0.8213 0.5705 -0.5705 -0.8213 628.3879 351.3807)" fill="#2C4D63" width="14.9" height="7.9"/>
					
						<rect x="274.7" y="240.9" transform="matrix(-0.8213 0.5705 -0.5705 -0.8213 653.6053 284.9899)" fill="#2C4D63" width="14.9" height="7.9"/>
					
						<rect x="260.1" y="251.1" transform="matrix(-0.8213 0.5705 -0.5705 -0.8213 632.7861 311.8126)" fill="#2C4D63" width="14.9" height="7.9"/>
					
						<rect x="245.5" y="261.2" transform="matrix(-0.8213 0.5705 -0.5705 -0.8213 611.967 338.6352)" fill="#2C4D63" width="14.9" height="7.9"/>
					
						<rect x="268.5" y="232" transform="matrix(-0.8213 0.5705 -0.5705 -0.8213 637.1844 272.2444)" fill="#2C4D63" width="14.9" height="7.9"/>
					
						<rect x="253.9" y="242.1" transform="matrix(-0.8213 0.5705 -0.5705 -0.8213 616.3652 299.067)" fill="#2C4D63" width="14.9" height="7.9"/>
					
						<rect x="239.3" y="252.3" transform="matrix(-0.8213 0.5705 -0.5705 -0.8213 595.5461 325.8897)" fill="#2C4D63" width="14.9" height="7.9"/>
					
						<rect x="262.3" y="223" transform="matrix(-0.8213 0.5705 -0.5705 -0.8213 620.7635 259.4989)" fill="#2C4D63" width="14.9" height="7.9"/>
					
						<rect x="247.7" y="233.2" transform="matrix(-0.8213 0.5705 -0.5705 -0.8213 599.9444 286.3215)" fill="#2C4D63" width="14.9" height="7.9"/>
					
						<rect x="233.1" y="243.3" transform="matrix(-0.8213 0.5705 -0.5705 -0.8213 579.1252 313.1441)" fill="#2C4D63" width="14.9" height="7.9"/>
				</g>
			</g>
			<g>
				
					<rect x="204.1" y="145.7" transform="matrix(-0.8213 0.5705 -0.5705 -0.8213 470.4321 185.7969)" fill="#4A5164" width="4.1" height="41.7"/>
				
					<rect x="216.1" y="137.4" transform="matrix(-0.9737 0.2278 -0.2278 -0.9737 466.5977 262.5933)" fill="#4A5164" width="4.1" height="41.7"/>
				
					<rect x="192" y="154.1" transform="matrix(0.5533 -0.833 0.833 0.5533 -59.0238 239.817)" fill="#4A5164" width="4.1" height="41.7"/>
				<g>
					
						<rect x="132.8" y="28.7" transform="matrix(-0.8213 0.5705 -0.5705 -0.8213 348.7911 91.3818)" fill="#B3B4B5" width="54.5" height="143.2"/>
					
						<rect x="129.7" y="32.2" transform="matrix(-0.8213 0.5705 -0.5705 -0.8213 270.3863 -12.4562)" fill="#2C4D63" width="14.9" height="7.9"/>
					
						<rect x="115.1" y="42.3" transform="matrix(-0.8213 0.5705 -0.5705 -0.8213 249.5671 14.3664)" fill="#2C4D63" width="14.9" height="7.9"/>
					
						<rect x="100.5" y="52.5" transform="matrix(-0.8213 0.5705 -0.5705 -0.8213 228.748 41.189)" fill="#2C4D63" width="14.9" height="7.9"/>
					
						<rect x="135.9" y="41.1" transform="matrix(-0.8213 0.5705 -0.5705 -0.8213 286.8072 0.2893)" fill="#2C4D63" width="14.9" height="7.9"/>
					
						<rect x="121.3" y="51.3" transform="matrix(-0.8213 0.5705 -0.5705 -0.8213 265.988 27.1119)" fill="#2C4D63" width="14.9" height="7.9"/>
					
						<rect x="106.7" y="61.4" transform="matrix(-0.8213 0.5705 -0.5705 -0.8213 245.1689 53.9346)" fill="#2C4D63" width="14.9" height="7.9"/>
					
						<rect x="142.1" y="50.1" transform="matrix(-0.8213 0.5705 -0.5705 -0.8213 303.2281 13.0348)" fill="#2C4D63" width="14.9" height="7.9"/>
					
						<rect x="127.5" y="60.2" transform="matrix(-0.8213 0.5705 -0.5705 -0.8213 282.4089 39.8575)" fill="#2C4D63" width="14.9" height="7.9"/>
					
						<rect x="112.9" y="70.4" transform="matrix(-0.8213 0.5705 -0.5705 -0.8213 261.5898 66.6801)" fill="#2C4D63" width="14.9" height="7.9"/>
					
						<rect x="148.4" y="59" transform="matrix(-0.8213 0.5705 -0.5705 -0.8213 319.649 25.7804)" fill="#2C4D63" width="14.9" height="7.9"/>
					
						<rect x="133.7" y="69.1" transform="matrix(-0.8213 0.5705 -0.5705 -0.8213 298.8298 52.603)" fill="#2C4D63" width="14.9" height="7.9"/>
					
						<rect x="119.1" y="79.3" transform="matrix(-0.8213 0.5705 -0.5705 -0.8213 278.0107 79.4256)" fill="#2C4D63" width="14.9" height="7.9"/>
					
						<rect x="154.6" y="67.9" transform="matrix(-0.8213 0.5705 -0.5705 -0.8213 336.0699 38.5259)" fill="#2C4D63" width="14.9" height="7.9"/>
					
						<rect x="140" y="78.1" transform="matrix(-0.8213 0.5705 -0.5705 -0.8213 315.2507 65.3485)" fill="#2C4D63" width="14.9" height="7.9"/>
					
						<rect x="125.4" y="88.2" transform="matrix(-0.8213 0.5705 -0.5705 -0.8213 294.4316 92.1712)" fill="#2C4D63" width="14.9" height="7.9"/>
					
						<rect x="160.8" y="76.9" transform="matrix(-0.8213 0.5705 -0.5705 -0.8213 352.4907 51.2714)" fill="#2C4D63" width="14.9" height="7.9"/>
					
						<rect x="146.2" y="87" transform="matrix(-0.8213 0.5705 -0.5705 -0.8213 331.6716 78.0941)" fill="#2C4D63" width="14.9" height="7.9"/>
					
						<rect x="131.6" y="97.2" transform="matrix(-0.8213 0.5705 -0.5705 -0.8213 310.8524 104.9167)" fill="#2C4D63" width="14.9" height="7.9"/>
					
						<rect x="167" y="85.8" transform="matrix(-0.8213 0.5705 -0.5705 -0.8213 368.9116 64.017)" fill="#2C4D63" width="14.9" height="7.9"/>
					
						<rect x="152.4" y="96" transform="matrix(-0.8213 0.5705 -0.5705 -0.8213 348.0925 90.8396)" fill="#2C4D63" width="14.9" height="7.9"/>
					
						<rect x="137.8" y="106.1" transform="matrix(-0.8213 0.5705 -0.5705 -0.8213 327.2733 117.6622)" fill="#2C4D63" width="14.9" height="7.9"/>
					
						<rect x="173.2" y="94.8" transform="matrix(-0.8213 0.5705 -0.5705 -0.8213 385.3325 76.7625)" fill="#2C4D63" width="14.9" height="7.9"/>
					
						<rect x="158.6" y="104.9" transform="matrix(-0.8213 0.5705 -0.5705 -0.8213 364.5134 103.5851)" fill="#2C4D63" width="14.9" height="7.9"/>
					
						<rect x="144" y="115.1" transform="matrix(-0.8213 0.5705 -0.5705 -0.8213 343.6942 130.4078)" fill="#2C4D63" width="14.9" height="7.9"/>
					
						<rect x="179.4" y="103.7" transform="matrix(-0.8213 0.5705 -0.5705 -0.8213 401.7534 89.508)" fill="#2C4D63" width="14.9" height="7.9"/>
					
						<rect x="164.8" y="113.9" transform="matrix(-0.8213 0.5705 -0.5705 -0.8213 380.9343 116.3307)" fill="#2C4D63" width="14.9" height="7.9"/>
					
						<rect x="150.2" y="124" transform="matrix(-0.8213 0.5705 -0.5705 -0.8213 360.1151 143.1533)" fill="#2C4D63" width="14.9" height="7.9"/>
					
						<rect x="185.6" y="112.7" transform="matrix(-0.8213 0.5705 -0.5705 -0.8213 418.1743 102.2536)" fill="#2C4D63" width="14.9" height="7.9"/>
					
						<rect x="171" y="122.8" transform="matrix(-0.8213 0.5705 -0.5705 -0.8213 397.3552 129.0762)" fill="#2C4D63" width="14.9" height="7.9"/>
					
						<rect x="156.4" y="133" transform="matrix(-0.8213 0.5705 -0.5705 -0.8213 376.536 155.8988)" fill="#2C4D63" width="14.9" height="7.9"/>
					
						<rect x="191.9" y="121.6" transform="matrix(-0.8213 0.5705 -0.5705 -0.8213 434.5952 114.9991)" fill="#2C4D63" width="14.9" height="7.9"/>
					
						<rect x="177.2" y="131.8" transform="matrix(-0.8213 0.5705 -0.5705 -0.8213 413.7761 141.8218)" fill="#2C4D63" width="14.9" height="7.9"/>
					
						<rect x="162.6" y="141.9" transform="matrix(-0.8213 0.5705 -0.5705 -0.8213 392.9569 168.6444)" fill="#2C4D63" width="14.9" height="7.9"/>
					
						<rect x="198.1" y="130.6" transform="matrix(-0.8213 0.5705 -0.5705 -0.8213 451.0161 127.7446)" fill="#2C4D63" width="14.9" height="7.9"/>
					
						<rect x="183.5" y="140.7" transform="matrix(-0.8213 0.5705 -0.5705 -0.8213 430.1969 154.5673)" fill="#2C4D63" width="14.9" height="7.9"/>
					
						<rect x="168.9" y="150.9" transform="matrix(-0.8213 0.5705 -0.5705 -0.8213 409.3778 181.3899)" fill="#2C4D63" width="14.9" height="7.9"/>
					
						<rect x="204.3" y="139.5" transform="matrix(-0.8213 0.5705 -0.5705 -0.8213 467.437 140.4902)" fill="#2C4D63" width="14.9" height="7.9"/>
					
						<rect x="189.7" y="149.7" transform="matrix(-0.8213 0.5705 -0.5705 -0.8213 446.6178 167.3128)" fill="#2C4D63" width="14.9" height="7.9"/>
					
						<rect x="175.1" y="159.8" transform="matrix(-0.8213 0.5705 -0.5705 -0.8213 425.7987 194.1354)" fill="#2C4D63" width="14.9" height="7.9"/>
				</g>
			</g>
		</g>
		<g>
			<polygon fill="#B3B4B5" points="219.1,163.1 244,167.6 258.4,188.3 253.9,213.2 233.1,227.7 208.3,223.2 193.8,202.4 
				198.3,177.5 			"/>
			<polygon fill="#4A5164" points="222.4,178.3 235.5,180.7 243.1,191.7 240.8,204.8 229.8,212.4 216.7,210 209.1,199.1 211.4,186 
							"/>
			<polygon fill="#A7A9AA" points="253.9,213.2 240.8,204.8 229.8,212.4 233.1,227.7 			"/>
			<polygon fill="#989A9B" points="216.7,210 208.3,223.2 193.8,202.4 209.1,199.1 			"/>
			<polygon fill="#C4C4C5" points="235.5,180.7 244,167.6 219.1,163.1 222.4,178.3 			"/>
			<polygon fill="#7F8082" points="211.4,186 198.3,177.5 193.8,202.4 209.1,199.1 			"/>
			<polygon fill="#ADAEB0" points="243.1,191.7 240.8,204.8 253.9,213.2 258.4,188.3 			"/>
		</g>
	</g>
</g>
</svg>
